<?xml version="1.0" standalone="no"?>
<!DOCTYPE svg PUBLIC "-//W3C//DTD SVG 20010904//EN"
 "http://www.w3.org/TR/2001/REC-SVG-20010904/DTD/svg10.dtd">
<svg version="1.0" xmlns="http://www.w3.org/2000/svg"
 width="622.000000pt" height="622.000000pt" viewBox="0 0 622.000000 622.000000"
 preserveAspectRatio="xMidYMid meet">

<g transform="translate(0.000000,622.000000) scale(0.100000,-0.100000)"
fill="#000000" stroke="none">
<path d="M0 6061 c0 -142 2 -159 18 -164 9 -4 37 -18 61 -32 24 -14 45 -25 46
-23 7 7 -21 33 -34 33 -8 0 -16 5 -18 12 -3 9 4 10 26 3 19 -5 31 -5 31 1 0 5
-9 9 -20 9 -12 0 -17 5 -14 14 3 8 1 17 -5 21 -6 3 -11 1 -11 -6 0 -7 -2 -10
-5 -7 -3 3 -3 13 1 22 5 13 18 4 68 -43 33 -32 76 -71 95 -88 30 -26 32 -32
22 -51 -6 -12 -17 -22 -22 -22 -6 0 -41 21 -78 48 -78 56 -148 102 -156 102
-3 0 -5 -15 -5 -34 0 -27 7 -39 35 -60 19 -15 49 -40 67 -57 18 -16 48 -40 65
-52 36 -24 39 -34 20 -61 -12 -16 -19 -14 -95 33 -45 28 -84 51 -87 51 -3 0
-4 -25 -3 -55 1 -30 5 -50 9 -44 6 11 52 -15 108 -59 24 -19 24 -21 8 -46 -10
-14 -20 -26 -23 -26 -3 0 -28 11 -55 25 l-49 24 0 -42 c0 -38 3 -44 35 -61 39
-21 39 -23 25 -61 -8 -22 -15 -26 -34 -21 l-23 6 -1 -193 c0 -105 2 -186 4
-179 3 6 10 12 16 12 6 0 4 -8 -5 -18 -15 -17 -17 -54 -16 -333 l0 -314 49 97
c26 53 70 137 97 185 27 48 59 108 71 133 27 54 100 142 112 135 15 -9 -6 -57
-63 -150 -127 -205 -244 -402 -256 -431 -6 -17 -11 -57 -9 -89 l3 -58 55 66
c56 67 161 227 282 429 37 62 68 109 68 105 0 -5 -13 -39 -30 -77 -17 -38 -30
-71 -30 -74 0 -2 -40 -62 -88 -133 -117 -169 -190 -286 -198 -317 -5 -20 -12
-26 -35 -26 -26 0 -29 -4 -29 -31 0 -27 3 -30 23 -24 l22 6 -23 -20 c-21 -18
-23 -27 -20 -101 l3 -82 47 64 c78 103 103 128 128 128 20 0 17 -6 -28 -52
-28 -29 -74 -81 -102 -116 l-50 -63 0 -126 0 -125 157 6 c87 3 398 7 690 9
293 1 533 5 533 10 0 4 7 7 15 7 8 0 15 -4 15 -8 0 -5 81 -7 180 -5 99 2 180
2 180 -1 0 -2 -27 -18 -60 -35 l-59 -31 -306 0 c-193 0 -304 -4 -300 -10 3 -6
-5 -6 -22 0 -15 4 -252 11 -525 13 l-498 5 0 -54 c0 -40 4 -54 14 -54 12 0 12
-7 0 -52 -10 -38 -13 -109 -12 -248 1 -107 3 -179 5 -160 8 92 54 257 109 394
l26 66 54 0 c33 0 54 -4 54 -11 0 -6 -7 -38 -16 -71 -48 -188 -66 -330 -70
-558 -2 -124 0 -241 5 -260 8 -31 9 -27 11 35 6 201 10 242 29 290 11 27 25
82 31 120 13 75 44 205 65 270 7 22 23 73 36 113 l24 72 58 0 59 0 -6 -27
c-13 -60 -22 -163 -14 -163 4 0 8 5 8 11 0 5 5 7 10 4 6 -3 10 -3 10 2 0 4 14
24 30 43 28 33 38 31 24 -4 -3 -9 -12 -16 -20 -16 -8 0 -14 -9 -14 -20 0 -11
-6 -20 -14 -20 -8 0 -17 -7 -20 -16 -11 -29 3 -28 30 1 l25 27 -5 -63 -6 -64
19 85 c11 47 20 96 20 110 1 29 33 110 44 110 10 0 10 4 -22 -164 -33 -169
-43 -248 -30 -240 5 3 9 25 9 50 0 24 4 44 9 44 5 0 8 16 7 35 -2 20 1 38 5
41 5 3 10 15 10 27 1 17 2 18 6 5 2 -10 9 -18 14 -18 5 0 9 -7 9 -16 0 -14 -3
-14 -15 -4 -8 7 -15 11 -15 9 1 -2 9 -38 19 -79 l18 -75 22 95 c39 173 75 290
88 290 9 0 10 -7 3 -25 -34 -91 -123 -488 -119 -537 1 -20 19 43 24 87 7 60
10 74 18 81 4 4 7 23 7 43 0 31 19 83 20 56 1 -15 20 22 30 56 5 16 5 31 1 34
-5 2 -12 -14 -16 -38 -4 -23 -9 -37 -12 -30 -2 6 1 31 7 55 12 43 12 43 30 21
13 -16 20 -19 29 -10 16 16 14 1 -14 -93 -14 -46 -25 -93 -24 -104 1 -24 0
-25 30 74 27 91 85 265 102 303 8 18 19 27 35 27 18 0 21 -3 14 -17 -5 -10
-24 -70 -42 -133 -17 -63 -39 -139 -47 -168 -8 -29 -13 -56 -9 -59 3 -3 8 0
10 8 10 33 37 128 50 179 8 30 15 50 15 44 1 -6 12 -10 26 -9 22 3 25 0 25
-30 0 -19 -5 -45 -11 -59 -10 -20 -15 -23 -30 -15 -12 6 -16 15 -12 26 4 11 3
14 -5 9 -18 -11 -14 -30 8 -44 11 -7 20 -20 20 -30 0 -15 -2 -15 -10 -2 -7 11
-9 2 -4 -30 4 -30 2 -40 -4 -32 -6 10 -11 0 -14 -35 -3 -26 -9 -56 -13 -65 -4
-10 -3 -18 3 -18 5 0 16 26 25 58 8 31 31 109 51 172 21 63 40 135 43 160 6
42 46 100 60 86 5 -5 -34 -133 -58 -191 -18 -46 -30 -96 -26 -108 3 -6 6 -2 6
11 1 12 5 22 9 22 5 0 14 24 21 53 14 52 40 112 41 91 0 -6 -7 -28 -15 -47
-24 -57 -16 -67 9 -13 16 36 25 46 31 36 5 -9 4 -15 -3 -18 -7 -2 -12 -12 -12
-21 0 -10 -8 -33 -17 -52 -9 -19 -16 -46 -14 -61 2 -19 -5 -31 -22 -43 -14 -9
-27 -25 -30 -35 -3 -11 -12 -20 -21 -20 -9 0 -16 -8 -16 -19 0 -24 -70 -161
-82 -161 -5 0 -7 -4 -4 -9 3 -5 -1 -25 -9 -45 -8 -20 -20 -59 -26 -88 -5 -29
-14 -62 -19 -73 -12 -30 -30 -110 -30 -139 0 -13 -6 -31 -14 -39 -8 -8 -13
-23 -10 -33 5 -17 0 -19 -48 -15 -29 2 -47 6 -41 8 9 3 12 28 11 81 l-2 77 -3
-67 c-2 -38 -8 -68 -13 -68 -6 0 -9 3 -7 8 1 4 -2 7 -8 7 -5 0 -8 -10 -7 -22
3 -18 -2 -23 -19 -23 -21 0 -21 -3 -17 -65 3 -36 2 -65 -3 -65 -5 0 -9 6 -10
13 -1 6 -2 19 -3 27 -2 8 -3 32 -4 53 -2 34 -4 37 -31 37 l-29 0 -7 116 c-5
75 -11 111 -16 101 -13 -22 -16 -146 -4 -155 6 -4 11 -20 12 -36 l2 -28 -87 3
c-101 5 -96 15 -58 -116 13 -44 29 -107 36 -140 17 -77 29 -101 30 -57 0 25 4
32 20 32 13 0 24 -10 30 -25 12 -31 23 -32 43 -3 15 22 16 16 16 -89 l1 -113
-255 0 c-236 0 -255 -1 -255 -17 0 -17 12 -18 162 -12 90 4 250 7 356 8 l192
1 0 -37 c0 -69 16 -67 -342 -61 -16 1 -28 4 -28 7 0 3 -57 7 -127 9 -71 1
-147 5 -170 8 l-43 6 0 -102 c0 -57 5 -111 11 -123 9 -16 9 -22 0 -25 -6 -2
-11 -10 -11 -18 0 -11 18 -14 79 -14 79 0 79 0 100 34 23 36 27 56 11 56 -5 0
-10 -6 -10 -14 0 -18 -30 -30 -43 -17 -24 24 46 66 151 90 28 7 52 17 52 22 0
6 35 9 80 7 93 -3 108 -22 23 -26 -32 -2 -61 -6 -65 -11 -5 -4 21 -5 57 -3
l65 4 0 -78 c0 -74 1 -77 16 -56 17 25 34 29 34 8 0 -22 74 -16 78 7 4 20 -24
24 -31 5 -3 -7 -5 1 -5 17 0 17 2 24 5 18 7 -18 23 -16 23 3 0 9 9 18 20 21
23 6 28 25 6 21 -8 -2 -15 2 -16 7 0 6 11 11 25 13 25 3 25 2 20 -40 -4 -24
-11 -65 -16 -91 -12 -65 -12 -66 16 -79 14 -6 25 -18 25 -27 0 -13 13 -16 63
-18 34 -2 112 -9 172 -17 158 -21 513 -38 627 -30 111 7 101 16 113 -100 4
-44 13 -69 38 -103 31 -44 32 -49 35 -159 3 -86 0 -124 -12 -156 -9 -24 -20
-73 -25 -110 -12 -84 -40 -128 -82 -128 -28 0 -29 1 -31 53 -1 35 -2 42 -5 20
-3 -20 -10 -33 -19 -33 -8 0 -14 -4 -14 -10 0 -5 7 -10 15 -10 8 0 15 -5 15
-11 0 -6 -7 -9 -15 -5 -18 7 -20 -5 -3 -22 9 -9 8 -12 -5 -12 -9 0 -17 -4 -17
-10 0 -5 5 -10 10 -10 16 0 12 -30 -5 -37 -10 -3 -15 -16 -14 -32 1 -14 1 -35
-1 -46 -2 -15 -4 -13 -10 10 l-8 30 -1 -28 c-1 -34 -28 -77 -47 -77 -8 0 -17
-6 -20 -14 -3 -8 -11 -13 -19 -10 -7 3 -19 -2 -26 -10 -29 -32 -39 -45 -39
-53 -1 -18 -51 -54 -72 -53 -27 3 -88 -20 -88 -33 0 -4 -5 -5 -10 -2 -6 4 -17
1 -25 -5 -8 -7 -24 -10 -35 -7 -20 5 -24 -2 -21 -35 2 -14 -6 -17 -38 -15 -23
1 -41 4 -41 7 0 3 -40 4 -90 3 -54 -2 -90 1 -90 7 0 6 5 10 10 10 6 0 10 7 10
16 0 11 6 14 20 9 15 -5 20 -2 20 14 0 11 -5 23 -12 27 -7 5 -3 11 13 17 l24
10 -23 4 c-12 3 -27 14 -34 26 -6 12 -18 27 -26 33 -9 6 -15 25 -15 42 0 26
-5 32 -29 37 -24 6 -27 10 -22 31 5 18 2 24 -11 24 -15 0 -15 3 -5 15 11 13 9
19 -8 35 -12 11 -29 20 -38 20 -14 0 -16 9 -12 62 4 56 2 65 -17 80 -19 15
-22 25 -18 70 2 39 1 48 -6 33 -8 -15 -9 -9 -8 27 1 26 -2 46 -7 45 -5 -1 -10
-40 -11 -87 -2 -96 -13 -176 -27 -204 -8 -14 -7 -17 3 -11 9 6 10 0 5 -26 -4
-19 -11 -95 -17 -169 -5 -74 -14 -149 -20 -166 -5 -18 -8 -38 -7 -45 2 -12
-39 -14 -230 -17 -160 -2 -231 1 -227 8 4 6 16 10 28 9 12 -1 65 -1 117 0 66
2 86 5 64 10 -17 4 -56 6 -88 5 -36 -2 -54 1 -50 7 3 6 12 8 20 5 8 -3 14 -1
14 3 0 5 -7 11 -15 15 -8 3 -15 15 -15 26 0 15 -7 20 -24 20 -19 0 -25 -6 -28
-27 l-3 -28 -17 33 c-16 32 -16 33 3 27 13 -4 19 -2 19 9 0 8 -8 17 -19 21
-13 4 -20 18 -24 52 -3 28 -11 50 -21 55 -18 10 -22 58 -5 58 6 0 9 -9 6 -20
-3 -11 -1 -20 5 -20 6 0 8 11 3 27 -4 16 -7 44 -6 63 0 19 -3 44 -8 55 -28 61
-41 114 -37 147 3 23 0 38 -7 41 -8 2 -11 24 -10 58 1 46 0 51 -11 37 -7 -10
-16 -15 -19 -11 -4 3 -7 -168 -7 -381 0 -350 2 -388 16 -382 9 3 25 6 37 6 17
0 19 2 8 9 -23 15 29 20 286 27 219 6 243 5 249 -10 3 -9 12 -16 20 -16 24 0
15 -20 -14 -31 -18 -7 -121 -8 -314 -3 -213 5 -288 4 -288 -5 0 -8 704 -11
2775 -11 2460 0 2775 2 2775 15 0 18 100 20 340 7 l145 -7 -100 -6 c-81 -4
-63 -6 93 -7 l192 -2 0 905 0 905 -28 0 c-15 0 -63 -4 -107 -10 -44 -5 -169
-12 -278 -14 -109 -2 -201 -6 -204 -10 -3 -3 -12 -1 -20 5 -9 9 -13 8 -13 0 0
-6 -6 -10 -12 -9 -14 3 -25 37 -27 82 l-1 29 263 -7 c144 -4 276 -8 292 -11
17 -2 54 -7 83 -10 l52 -6 0 41 c0 44 -3 46 -40 25 -14 -8 -34 -14 -45 -15
-12 0 2 11 33 27 50 27 52 29 52 70 0 24 -3 43 -6 43 -4 0 -50 -32 -104 -70
l-97 -70 -74 0 -74 0 61 38 c34 20 113 62 177 92 l116 55 1 48 c0 48 -8 57
-32 33 -8 -8 -37 -26 -64 -40 -66 -35 -169 -100 -213 -135 -20 -15 -46 -32
-59 -35 -12 -4 -30 -18 -38 -32 -16 -23 -19 -24 -151 -24 l-134 0 6 82 c4 46
2 124 -5 173 -6 50 -15 133 -21 185 -27 250 -74 435 -146 573 -47 88 -194 249
-269 292 -52 31 -95 61 -143 101 l-25 22 42 56 43 56 505 0 505 0 -27 -27
c-26 -28 -59 -91 -51 -100 3 -2 14 9 25 25 12 15 48 45 80 65 50 31 69 37 116
37 l56 0 0 61 0 62 -167 -7 c-203 -8 -1058 -23 -1128 -20 -27 2 -120 3 -205 3
-152 1 -157 2 -198 28 -23 15 -42 30 -42 33 0 11 1465 3 1580 -8 176 -18 160
-24 160 58 0 39 -4 70 -9 70 -4 0 -19 -8 -32 -18 -61 -47 -104 -63 -159 -60
l-55 3 75 41 c41 23 99 50 128 60 52 19 52 19 52 62 l0 43 -81 -43 c-45 -24
-111 -70 -147 -104 l-67 -61 -367 -5 c-203 -3 -368 -3 -368 1 0 12 247 249
355 342 103 88 250 201 365 281 97 66 90 65 85 11 -5 -47 -4 -47 6 -13 26 82
29 86 125 145 l94 59 0 43 c0 24 -3 43 -6 43 -4 0 -28 -16 -55 -36 -27 -20
-49 -32 -49 -27 1 11 84 73 98 73 7 0 12 7 12 15 0 18 -5 18 -32 4 -37 -20
-86 -64 -148 -135 -14 -16 -61 -54 -104 -84 -43 -30 -84 -60 -90 -65 -6 -6
-40 -32 -76 -58 -79 -58 -68 -50 -215 -172 -66 -55 -196 -175 -290 -267 l-170
-168 -83 0 -84 0 7 33 c4 17 36 127 72 242 59 194 173 572 208 691 9 29 27 61
43 75 80 70 231 185 297 226 109 68 150 92 153 88 8 -8 -29 -128 -54 -177 -29
-57 -31 -74 -4 -33 23 35 80 188 80 215 0 15 24 31 93 66 81 40 217 96 217 89
0 -1 -9 -22 -19 -46 -26 -58 -64 -196 -58 -212 2 -7 12 15 22 48 27 91 93 225
112 225 13 0 13 -3 3 -15 -10 -12 -10 -15 0 -15 8 0 11 -3 7 -6 -9 -9 19 -60
36 -67 17 -6 43 36 33 52 -4 7 1 11 13 11 12 0 21 -8 24 -22 2 -13 5 235 6
550 l1 573 -860 -2 c-732 -1 -861 -3 -871 -16 -7 -7 -18 -12 -25 -9 -7 3 -16
1 -19 -4 -10 -17 -33 -11 -40 10 -6 18 -15 20 -79 20 -44 0 -77 -5 -85 -12
-11 -10 -14 -10 -18 0 -4 9 -54 12 -206 12 -129 0 -197 -4 -187 -10 8 -5 12
-12 8 -15 -3 -3 -13 1 -21 10 -14 13 -82 15 -558 15 -422 0 -540 -3 -531 -12
13 -13 16 -47 6 -72 -9 -24 -18 -20 -33 15 -10 23 -10 34 -2 42 6 6 11 15 11
19 0 4 -610 8 -1355 8 l-1355 0 0 -159z m5000 81 c0 -8 -65 11 -72 22 -4 6 -8
7 -8 3 0 -5 -5 -5 -11 -2 -7 5 -5 13 6 25 15 17 18 16 50 -13 19 -17 35 -32
35 -35z m-720 51 c0 -5 -9 -19 -19 -32 -16 -21 -19 -22 -25 -6 -4 11 0 22 11
31 20 15 33 18 33 7z m383 -22 c51 -12 52 -15 35 -53 -8 -18 -21 -54 -28 -81
-7 -26 -16 -49 -19 -51 -3 -2 -22 10 -41 28 -35 30 -35 32 -32 99 4 75 6 76
85 58z m417 -11 c0 -5 13 -7 30 -3 20 3 30 1 30 -6 0 -8 -8 -10 -22 -6 -17 6
-20 4 -15 -10 5 -13 2 -16 -15 -13 -21 3 -38 48 -18 48 6 0 10 -4 10 -10z
m-1250 -50 c0 -50 -13 -67 -25 -31 -9 30 -2 81 12 81 9 0 13 -16 13 -50z m192
15 c-6 -34 -12 -32 -12 6 0 16 4 28 9 25 4 -3 6 -17 3 -31z m738 11 c0 -7 -8
-24 -17 -37 -27 -37 -43 -67 -43 -83 0 -7 -6 -19 -14 -25 -13 -11 -13 -7 -4
26 18 66 50 133 64 133 8 0 14 -6 14 -14z m-350 -11 c0 -8 -4 -15 -10 -15 -5
0 -10 7 -10 15 0 8 5 15 10 15 6 0 10 -7 10 -15z m774 0 c-10 -8 -27 -15 -38
-15 -15 0 -16 3 -6 15 7 8 24 15 38 15 25 0 25 -1 6 -15z m-980 -17 c3 -13 6
-27 6 -33 -1 -15 -30 27 -30 42 0 22 17 15 24 -9z m299 -35 c-1 -32 -2 -64 -2
-70 -1 -7 -13 -16 -28 -19 -16 -4 -36 -14 -45 -22 -17 -14 -18 -12 -18 26 0
27 6 48 18 60 9 9 28 32 40 50 13 17 26 32 30 32 4 0 6 -26 5 -57z m717 32 c0
-8 -9 -15 -20 -15 -20 0 -26 11 -13 23 12 13 33 7 33 -8z m-910 -45 c-18 -33
-25 -15 -9 22 9 23 15 28 17 16 2 -9 -2 -27 -8 -38z m620 23 c56 -38 56 -44 4
-41 -45 3 -49 5 -52 31 -4 32 12 35 48 10z m-782 -70 c13 -40 4 -42 -31 -5
-25 26 -35 61 -21 75 9 9 39 -31 52 -70z m1241 74 c-2 -1 -13 -9 -24 -17 -19
-14 -19 -14 -6 3 7 9 18 17 24 17 6 0 8 -1 6 -3z m-645 -45 c-7 -29 -21 -49
-29 -41 -2 3 1 21 7 42 13 41 32 40 22 -1z m-4399 -1 c-6 -5 -25 10 -25 20 0
5 6 4 14 -3 8 -7 12 -15 11 -17z m4695 4 c10 -12 10 -15 -3 -15 -8 0 -20 7
-27 15 -10 12 -10 15 3 15 8 0 20 -7 27 -15z m70 -15 c0 -5 -4 -10 -10 -10 -5
0 -10 5 -10 10 0 6 5 10 10 10 6 0 10 -4 10 -10z m-4734 -36 c-3 -8 0 -11 10
-7 10 4 12 0 8 -13 -4 -11 -4 -16 0 -12 10 8 46 -23 46 -40 0 -8 -18 1 -42 22
-29 23 -43 43 -44 61 -2 21 1 24 12 14 8 -7 13 -18 10 -25z m3945 3 c-8 -8
-11 -7 -11 4 0 20 13 34 18 19 3 -7 -1 -17 -7 -23z m-3881 -8 c0 -11 -4 -17
-10 -14 -5 3 -10 15 -10 26 0 11 5 17 10 14 6 -3 10 -15 10 -26z m3700 -84
c-7 -20 -15 -33 -20 -28 -13 15 -40 93 -40 116 0 20 3 19 36 -14 35 -36 36
-38 24 -74z m455 95 c3 -5 -1 -10 -9 -10 -9 0 -16 5 -16 10 0 6 4 10 9 10 6 0
13 -4 16 -10z m423 -6 l23 -15 -32 -40 c-17 -22 -28 -43 -24 -47 3 -4 12 0 18
10 7 9 19 26 27 37 14 20 40 29 40 14 0 -5 -15 -24 -33 -43 -30 -33 -36 -35
-89 -35 -32 0 -58 2 -58 5 -6 63 -7 117 -3 123 8 14 108 7 131 -9z m579 -6
c-3 -8 -6 -5 -6 6 -1 11 2 17 5 13 3 -3 4 -12 1 -19z m-5291 -61 c4 -11 1 -23
-7 -28 -10 -6 -10 -9 -2 -9 7 0 16 7 20 15 7 12 21 3 67 -44 47 -47 57 -63 54
-86 l-3 -28 -50 42 c-27 23 -64 54 -81 69 -18 15 -57 45 -87 67 -31 22 -56 44
-57 50 0 5 5 4 12 -3 7 -7 17 -8 29 -1 10 5 24 8 31 7 7 -2 12 4 10 12 -5 21
56 -39 64 -63z m4414 37 c0 -8 -5 -12 -10 -9 -6 4 -8 11 -5 16 9 14 15 11 15
-7z m-110 -10 c0 -2 -7 -4 -15 -4 -8 0 -15 4 -15 10 0 5 7 7 15 4 8 -4 15 -8
15 -10z m739 0 c2 -2 2 -7 -2 -10 -10 -10 -58 6 -52 17 6 8 42 4 54 -7z m-857
-56 c-5 -5 -20 -8 -32 -6 -22 3 -22 3 6 32 29 28 29 28 32 6 2 -12 -1 -27 -6
-32z m888 42 c0 -5 -4 -10 -10 -10 -5 0 -10 5 -10 10 0 6 5 10 10 10 6 0 10
-4 10 -10z m-717 -26 c6 -31 -13 -31 -42 0 l-23 25 30 -1 c23 -1 31 -6 35 -24z
m187 9 c0 -22 -17 -50 -25 -42 -5 6 14 59 22 59 1 0 3 -8 3 -17z m460 -3 c0
-4 -7 -11 -16 -14 -18 -7 -47 11 -39 24 6 9 55 0 55 -10z m-120 -10 c0 -5 -12
-10 -27 -10 -22 0 -25 2 -13 10 20 13 40 13 40 0z m-582 -18 c3 -9 -2 -13 -14
-10 -9 1 -19 9 -22 16 -3 9 2 13 14 10 9 -1 19 -9 22 -16z m100 7 c-2 -6 -8
-10 -13 -10 -5 0 -11 4 -13 10 -2 6 4 11 13 11 9 0 15 -5 13 -11z m552 -19 c0
-5 -7 -10 -15 -10 -8 0 -15 5 -15 10 0 6 7 10 15 10 8 0 15 -4 15 -10z m115 0
c-3 -5 -15 -10 -26 -10 -11 0 -17 5 -14 10 3 6 15 10 26 10 11 0 17 -4 14 -10z
m-4810 -35 l13 30 1 -47 c1 -27 -2 -48 -5 -48 -16 0 -33 38 -32 70 l1 35 4
-35 5 -35 13 30z m3505 13 c0 -18 -2 -20 -9 -8 -6 8 -7 18 -5 22 9 14 14 9 14
-14z m1070 12 c0 -5 -4 -10 -10 -10 -5 0 -10 5 -10 10 0 6 5 10 10 10 6 0 10
-4 10 -10z m40 0 c0 -5 -7 -10 -15 -10 -8 0 -15 5 -15 10 0 6 7 10 15 10 8 0
15 -4 15 -10z m-506 -43 c6 -9 7 -19 4 -22 -9 -9 -69 46 -62 57 7 11 43 -11
58 -35z m26 33 c0 -5 -5 -10 -11 -10 -5 0 -7 5 -4 10 3 6 8 10 11 10 2 0 4 -4
4 -10z m-87 -28 c15 -10 36 -28 47 -40 37 -40 20 -42 -35 -4 -30 20 -55 43
-55 50 0 17 10 15 43 -6z m227 8 c0 -5 -7 -10 -15 -10 -8 0 -15 5 -15 10 0 6
7 10 15 10 8 0 15 -4 15 -10z m991 -81 c6 -23 16 -39 29 -42 23 -6 27 -37 5
-37 -8 0 -15 4 -15 9 0 5 -8 17 -17 27 -12 11 -18 36 -19 78 -1 33 0 48 2 31
3 -16 9 -46 15 -66z m-4321 7 c0 -11 3 -16 7 -13 12 12 72 -117 73 -155 0 -21
-4 -38 -8 -38 -5 0 -30 45 -55 101 -34 72 -47 113 -46 142 l1 42 13 -30 c8
-16 14 -39 15 -49z m2971 64 c14 -8 19 -21 19 -53 0 -50 -7 -61 -38 -64 -17
-2 -23 2 -21 15 1 9 0 24 -4 32 -27 71 -10 98 44 70z m446 4 c-3 -3 -12 -4
-19 -1 -8 3 -5 6 6 6 11 1 17 -2 13 -5z m-4137 -19 c7 -8 8 -15 2 -15 -5 0
-15 7 -22 15 -7 8 -8 15 -2 15 5 0 15 -7 22 -15z m4240 11 c0 -3 -4 -8 -10
-11 -5 -3 -10 -1 -10 4 0 6 5 11 10 11 6 0 10 -2 10 -4z m86 -19 c8 -27 2 -28
-39 -10 -47 22 -47 34 -2 30 24 -1 37 -8 41 -20z m-4509 -9 c-3 -8 -6 -5 -6 6
-1 11 2 17 5 13 3 -3 4 -12 1 -19z m733 1 c0 -5 -4 -9 -10 -9 -5 0 -10 7 -10
16 0 8 5 12 10 9 6 -3 10 -10 10 -16z m3570 11 c0 -5 -4 -10 -10 -10 -5 0 -10
5 -10 10 0 6 5 10 10 10 6 0 10 -4 10 -10z m250 -16 c0 -31 -23 -28 -28 4 -2
15 2 22 12 22 11 0 16 -9 16 -26z m-450 -10 c0 -8 -4 -12 -10 -9 -5 3 -10 13
-10 21 0 8 5 12 10 9 6 -3 10 -13 10 -21z m118 14 c13 -13 17 -68 4 -68 -17 0
-32 25 -32 52 0 30 9 35 28 16z m204 -2 c14 -8 42 -19 62 -26 35 -11 59 -50
42 -67 -4 -4 -46 -6 -94 -4 -72 2 -91 6 -109 23 -13 12 -23 25 -23 29 0 10 71
59 85 59 5 0 22 -6 37 -14z m188 10 c0 -3 -4 -8 -10 -11 -5 -3 -10 -1 -10 4 0
6 5 11 10 11 6 0 10 -2 10 -4z m135 -21 c0 -5 -17 -11 -37 -13 -38 -3 -53 12
-20 21 26 8 57 3 57 -8z m-765 -5 c0 -5 -2 -10 -4 -10 -3 0 -8 5 -11 10 -3 6
-1 10 4 10 6 0 11 -4 11 -10z m848 -2 c-6 -18 -28 -21 -28 -4 0 9 7 16 16 16
9 0 14 -5 12 -12z m-4748 -59 c0 -10 -5 -21 -11 -24 -13 -9 -49 23 -49 44 1
14 2 14 14 -1 7 -10 17 -18 22 -18 4 0 3 5 -4 12 -7 7 -12 19 -12 27 0 11 4
10 20 -4 11 -10 20 -26 20 -36z m4883 44 c-7 -2 -19 -2 -25 0 -7 3 -2 5 12 5
14 0 19 -2 13 -5z m-983 -13 c0 -5 5 -10 11 -10 6 0 17 -7 26 -16 21 -20 4
-37 -32 -32 -24 3 -28 8 -29 36 -1 19 4 32 12 32 6 0 12 -4 12 -10z m-4237
-43 c26 -24 47 -49 47 -55 0 -15 -30 -15 -51 1 -67 52 -70 57 -64 77 3 11 9
20 13 20 4 0 28 -19 55 -43z m5076 29 c7 -8 8 -17 3 -20 -6 -3 -12 3 -15 14
-6 24 -4 25 12 6z m-4919 -11 c0 -8 5 -15 12 -15 19 0 58 -42 58 -62 0 -27
-16 -22 -42 12 -12 16 -29 32 -39 35 -11 4 -15 12 -12 25 6 23 23 27 23 5z
m4298 -14 c3 -8 -1 -12 -9 -9 -7 2 -15 10 -17 17 -3 8 1 12 9 9 7 -2 15 -10
17 -17z m107 0 c-8 -13 -44 -20 -51 -10 -3 5 5 13 18 18 24 9 42 5 33 -8z
m398 -1 c-8 -30 -20 -33 -48 -13 -34 25 -31 33 14 33 34 0 38 -2 34 -20z m81
14 c9 -3 16 -15 16 -25 0 -15 -7 -19 -40 -19 -43 0 -49 9 -24 34 17 18 24 19
48 10z m-154 -36 c0 -13 -23 -5 -28 10 -2 7 2 10 12 6 9 -3 16 -11 16 -16z
m-302 -27 c11 -6 32 -11 46 -11 14 0 26 -5 26 -11 0 -6 7 -17 15 -25 22 -22
18 -34 -9 -34 -15 0 -37 15 -60 40 l-36 40 -89 1 c-50 0 -95 -2 -100 -6 -6 -3
-11 -2 -11 2 0 28 168 31 218 4z m-3738 9 c-69 -15 -103 -20 -97 -14 9 9 68
22 102 22 29 0 29 0 -5 -8z m519 -82 c1 -5 -2 -8 -6 -8 -12 0 -33 51 -32 74 0
15 6 9 19 -19 10 -22 19 -43 19 -47z m2180 47 c41 -48 94 -131 127 -202 47
-102 64 -144 64 -157 0 -8 -21 -24 -47 -38 -34 -17 -51 -33 -57 -54 -5 -16
-22 -57 -37 -92 -33 -72 -35 -82 -13 -82 8 0 13 4 9 9 -3 6 6 6 25 1 22 -6 30
-5 30 5 0 7 10 16 23 20 27 9 25 9 65 0 42 -9 44 12 2 26 -16 6 -30 15 -30 21
0 8 18 6 57 -9 7 -3 10 3 6 17 -4 14 -8 18 -13 10 -5 -8 -9 -7 -13 3 -7 18 1
27 24 27 21 0 39 -47 29 -76 -5 -11 -23 -26 -42 -33 -73 -27 -171 -90 -142
-91 6 0 23 11 38 25 29 27 31 28 64 19 20 -6 32 -34 15 -34 -5 0 -8 -11 -8
-25 0 -14 5 -25 11 -25 21 0 46 -38 39 -59 -6 -21 -35 -30 -35 -10 0 5 -4 8
-9 4 -5 -3 -19 7 -30 21 -26 33 -27 19 -2 -22 15 -25 25 -30 52 -29 19 1 42 5
52 10 13 6 17 2 17 -17 0 -13 6 -30 12 -36 10 -10 7 -17 -14 -35 -24 -21 -25
-24 -12 -52 7 -16 13 -23 14 -14 0 16 34 32 44 21 12 -11 5 -42 -9 -42 -12 0
-15 -13 -15 -56 0 -53 1 -55 23 -49 36 12 41 11 45 -8 2 -13 -5 -19 -28 -23
-25 -6 -31 -11 -28 -30 4 -28 3 -28 -45 -19 -36 7 -37 8 -18 22 20 13 31 60
13 49 -5 -3 -38 0 -73 6 -57 9 -75 8 -142 -11 -95 -26 -112 -26 -147 -1 -22
16 -29 17 -33 6 -8 -20 15 -58 48 -81 26 -17 29 -23 20 -42 -5 -13 -17 -23
-25 -23 -8 0 -30 -10 -49 -21 -19 -12 -51 -23 -70 -25 -54 -7 -69 -13 -76 -32
-3 -9 -22 -35 -43 -58 -32 -34 -43 -40 -79 -41 -27 -1 -43 3 -43 10 0 7 -5 5
-10 -5 -6 -10 -18 -14 -30 -11 -23 6 -26 19 -7 26 6 3 2 6 -10 6 -13 1 -23 -3
-23 -8 0 -5 -11 -11 -25 -13 -26 -5 -58 11 -55 27 5 25 -1 43 -17 49 -60 21
-73 24 -79 14 -4 -7 -10 -5 -16 5 -5 9 -15 14 -22 11 -9 -3 -17 4 -21 18 -4
13 -23 38 -42 56 -28 26 -38 30 -44 20 -7 -10 -9 -9 -9 5 0 28 -25 68 -78 124
-19 20 -42 50 -53 67 -10 17 -19 27 -19 21 0 -5 -8 6 -16 25 -9 19 -20 43 -25
53 -11 20 7 54 33 63 10 3 22 20 27 37 6 22 9 26 10 11 1 -28 31 -26 42 3 5
13 17 23 27 23 10 0 27 6 37 14 14 10 26 11 43 5 30 -12 41 -11 22 1 -27 18
195 12 253 -6 29 -9 56 -21 61 -25 13 -12 58 -11 76 1 13 9 13 12 -3 21 -9 6
-15 14 -12 19 3 5 -6 12 -20 16 -36 9 -21 24 18 18 24 -4 28 -3 17 5 -8 6 -27
11 -41 11 -38 0 -41 10 -11 35 34 28 95 50 100 35 2 -5 15 -10 28 -10 13 0 24
-4 24 -10 0 -5 -12 -10 -26 -10 -21 0 -24 -3 -15 -14 6 -7 9 -20 6 -27 -4 -11
11 -14 71 -16 l75 -3 -21 27 c-14 18 -17 29 -10 31 6 2 17 -3 23 -11 7 -8 21
-17 32 -19 13 -2 22 -14 25 -33 l6 -30 17 32 c9 17 14 38 11 46 -3 9 2 18 13
21 22 7 23 67 2 165 -16 76 -32 89 -121 102 -35 5 -79 12 -99 16 -34 8 -35 9
-27 40 5 20 41 67 91 120 83 88 157 182 157 200 0 13 35 44 46 42 21 -4 35 2
29 11 -15 24 16 7 44 -25z m779 28 c-10 -2 -18 -11 -18 -19 0 -14 -24 -22 -68
-22 -32 -1 -25 30 8 38 30 7 103 10 78 3z m912 -3 c11 -8 7 -9 -15 -4 -37 8
-45 14 -19 14 10 0 26 -5 34 -10z m-773 -36 c-9 -9 -27 6 -27 22 0 13 2 13 16
-1 9 -9 14 -18 11 -21z m975 24 c22 -18 53 -76 45 -84 -3 -4 -15 4 -26 17 -11
13 -22 21 -25 18 -4 -3 3 -17 14 -32 21 -27 27 -57 10 -57 -5 0 -10 -7 -10
-15 0 -8 -4 -15 -9 -15 -4 0 -11 33 -15 73 -4 39 -9 80 -12 90 -6 20 6 22 28
5z m-142 -8 c0 -5 -2 -10 -4 -10 -3 0 -8 5 -11 10 -3 6 -1 10 4 10 6 0 11 -4
11 -10z m-4565 -9 c7 -12 -12 -24 -25 -16 -11 7 -4 25 10 25 5 0 11 -4 15 -9z
m4020 -11 c0 -23 -39 -23 -60 0 l-19 21 39 -3 c27 -2 40 -8 40 -18z m-3277 -9
c3 -8 -1 -12 -9 -9 -7 2 -15 10 -17 17 -3 8 1 12 9 9 7 -2 15 -10 17 -17z
m3142 -32 c0 -5 -5 -9 -12 -9 -17 0 -48 31 -48 47 0 11 8 9 30 -7 17 -12 30
-26 30 -31z m730 9 l0 -43 -21 34 c-16 27 -18 36 -7 42 23 15 28 10 28 -33z
m-5412 2 c39 -28 52 -52 34 -64 -4 -2 -29 8 -54 24 -37 23 -45 33 -41 50 7 26
12 26 61 -10z m185 1 c20 -12 37 -27 37 -32 0 -5 7 -9 15 -9 8 0 15 -4 15 -10
0 -20 -29 -9 -72 26 -68 57 -66 69 5 25z m978 -24 c-8 -8 -11 -3 -11 19 1 25
2 27 11 11 8 -14 8 -22 0 -30z m3199 33 c0 -5 -10 -10 -22 -9 -22 0 -22 1 -3
9 11 5 21 9 23 9 1 1 2 -3 2 -9z m-3967 -34 c39 -36 45 -46 24 -46 -16 0 -77
55 -77 69 0 19 15 12 53 -23z m141 8 c3 -8 2 -14 -2 -14 -10 0 -32 22 -32 32
0 12 28 -2 34 -18z m290 4 c9 -12 16 -26 16 -31 0 -13 -29 12 -41 35 -14 26 6
23 25 -4z m736 12 c0 -5 -5 -10 -11 -10 -5 0 -7 5 -4 10 3 6 8 10 11 10 2 0 4
-4 4 -10z m2927 -9 c11 -17 9 -21 -8 -26 -26 -9 -30 -5 -22 23 7 27 15 28 30
3z m503 9 c0 -5 -15 -10 -32 -9 -31 1 -32 1 -8 9 35 11 40 11 40 0z m105 -8
c11 -6 16 -14 12 -18 -4 -4 -13 -2 -19 4 -7 7 -27 12 -46 12 -18 0 -31 3 -29
8 7 10 60 7 82 -6z m265 10 c0 -4 12 -20 26 -35 24 -26 26 -33 19 -85 -4 -31
-7 -83 -6 -114 1 -59 -11 -80 -34 -57 -11 12 -87 183 -101 229 -3 10 11 25 38
43 43 28 58 33 58 19z m-4030 -31 c0 -17 -4 -33 -10 -36 -6 -4 -10 8 -10 29 0
20 5 36 10 36 6 0 10 -13 10 -29z m2688 4 c15 -32 15 -45 2 -45 -5 0 -10 7
-10 15 0 8 -4 15 -10 15 -5 0 -10 9 -10 20 0 28 15 25 28 -5z m1165 8 c-7 -2
-19 -2 -25 0 -7 3 -2 5 12 5 14 0 19 -2 13 -5z m477 -25 c0 -6 -7 -5 -15 2 -8
7 -15 17 -15 22 0 6 7 5 15 -2 8 -7 15 -17 15 -22z m-4468 -20 c-9 -9 -12 -7
-12 12 0 19 3 21 12 12 9 -9 9 -15 0 -24z m261 18 c6 -16 -2 -28 -14 -20 -12
7 -11 34 0 34 5 0 11 -6 14 -14z m115 3 c-2 -6 -8 -10 -13 -10 -5 0 -11 4 -13
10 -2 6 4 11 13 11 9 0 15 -5 13 -11z m2752 1 c0 -5 -7 -10 -15 -10 -8 0 -15
5 -15 10 0 6 7 10 15 10 8 0 15 -4 15 -10z m668 -36 c10 -7 11 -13 5 -17 -12
-7 -43 34 -43 55 0 7 6 4 12 -7 6 -11 18 -25 26 -31z m-4039 22 c-2 -2 -15 -9
-29 -15 -24 -11 -24 -11 -6 3 16 13 49 24 35 12z m-805 -65 c17 -17 35 -31 41
-31 6 0 24 -10 39 -22 16 -13 38 -30 49 -39 11 -9 16 -18 11 -22 -5 -3 -39 17
-74 44 -36 26 -69 49 -75 49 -20 0 -68 47 -61 58 9 15 32 3 70 -37z m4183 43
c-3 -3 -12 -4 -19 -1 -8 3 -5 6 6 6 11 1 17 -2 13 -5z m50 0 c-3 -3 -12 -4
-19 -1 -8 3 -5 6 6 6 11 1 17 -2 13 -5z m168 -18 c0 -10 -7 -22 -15 -26 -8 -4
-29 -14 -47 -23 -39 -19 -53 -7 -46 39 5 30 6 31 56 30 44 -1 52 -4 52 -20z
m210 18 c13 -5 14 -8 3 -15 -19 -12 -25 -11 -32 6 -6 16 3 19 29 9z m152 0
c-3 -3 -12 -4 -19 -1 -8 3 -5 6 6 6 11 1 17 -2 13 -5z m-4617 -19 c0 -8 -4
-15 -9 -15 -5 0 -14 7 -21 15 -10 13 -9 15 9 15 12 0 21 -6 21 -15z m182 -2
c18 -16 25 -43 10 -43 -8 0 -62 48 -62 55 0 12 35 3 52 -12z m763 -14 c9 -17
14 -33 11 -37 -10 -9 -46 30 -46 50 0 28 18 22 35 -13z m138 1 c6 -16 15 -30
19 -30 4 0 8 -7 8 -16 0 -11 -8 -14 -27 -12 -25 3 -28 7 -31 46 -4 50 14 57
31 12z m106 -1 c18 -52 13 -67 -9 -26 -22 40 -25 57 -11 57 5 0 14 -14 20 -31z
m3341 11 c-40 -22 -50 -24 -50 -10 0 6 9 10 20 10 11 0 20 5 20 10 0 6 10 10
23 10 19 -1 17 -4 -13 -20z m-4874 -16 c33 -26 44 -57 24 -69 -12 -7 -90 32
-90 46 0 13 19 49 26 49 3 0 21 -12 40 -26z m958 10 c11 -28 7 -35 -14 -24
-23 12 -27 40 -6 40 8 0 17 -7 20 -16z m4246 7 c0 -11 -39 -25 -47 -18 -3 3
-2 10 2 16 8 13 45 15 45 2z m334 -56 c-11 -52 -20 -47 -20 12 -1 51 0 55 13
37 8 -12 11 -30 7 -49z m-3888 18 c-11 -11 -19 6 -11 24 8 17 8 17 12 0 3 -10
2 -21 -1 -24z m3074 21 c0 -8 -4 -12 -10 -9 -5 3 -10 10 -10 16 0 5 5 9 10 9
6 0 10 -7 10 -16z m533 -72 c9 -79 8 -82 -17 -107 -14 -14 -32 -25 -41 -25 -8
0 -15 -4 -15 -10 0 -5 -7 -10 -16 -10 -11 0 -14 -6 -9 -20 4 -13 1 -22 -9 -26
-9 -3 -14 -10 -11 -14 3 -5 -1 -15 -9 -23 -8 -8 -12 -18 -8 -21 5 -6 -4 -31
-39 -98 -5 -10 -9 -26 -9 -35 -1 -23 -37 -66 -48 -59 -13 8 -36 66 -29 73 4 3
15 -5 26 -18 26 -31 27 -15 1 26 -19 31 -19 65 1 65 4 0 13 -8 18 -17 6 -10
11 -13 11 -7 0 6 -7 17 -15 24 -8 7 -15 18 -15 26 0 25 22 26 47 3 l26 -24
-27 36 c-23 32 -25 40 -15 65 6 16 15 38 19 49 4 11 12 31 18 45 5 14 15 43
22 65 9 28 28 53 64 82 28 23 56 41 61 39 6 -1 14 -39 18 -84z m234 -66 c-4
-9 -10 -16 -15 -16 -8 0 -8 37 -2 130 3 42 4 40 13 -27 5 -39 7 -79 4 -87z
m-5040 80 c41 -36 19 -54 -25 -20 -17 14 -32 30 -32 35 0 17 29 9 57 -15z
m553 -1 c17 -9 30 -17 30 -19 0 -3 3 -11 6 -20 4 -11 0 -16 -14 -16 -12 0 -23
9 -27 20 -3 11 -13 27 -21 35 -20 19 -11 19 26 0z m257 9 c-3 -3 -12 -4 -19
-1 -8 3 -5 6 6 6 11 1 17 -2 13 -5z m69 -11 c14 -19 19 -73 7 -73 -5 1 -18 21
-30 45 -19 39 -20 45 -6 45 9 0 22 -8 29 -17z m4494 -28 c0 -5 -5 -3 -10 5 -5
8 -10 20 -10 25 0 6 5 3 10 -5 5 -8 10 -19 10 -25z m-5672 -10 c28 -20 52 -40
52 -45 0 -6 9 -10 19 -10 11 0 26 -7 35 -15 8 -8 21 -15 28 -15 20 -1 48 -26
48 -44 0 -21 -11 -20 -41 2 -36 26 -61 41 -89 53 -103 47 -133 69 -124 92 8
23 12 22 72 -18z m1322 10 c14 -17 12 -22 -10 -25 -30 -5 -40 0 -40 20 0 24
32 27 50 5z m100 0 c0 -8 -4 -15 -9 -15 -13 0 -22 16 -14 24 11 11 23 6 23 -9z
m3790 -51 c0 -8 7 -28 15 -44 15 -28 14 -30 -18 -54 -19 -15 -36 -26 -39 -26
-3 0 -5 44 -6 98 l-2 97 25 -28 c14 -15 25 -35 25 -43z m-662 44 c-3 -7 -13
-13 -23 -13 -10 0 -20 6 -22 13 -3 7 5 12 22 12 17 0 25 -5 23 -12z m316 6
c25 -9 19 -24 -9 -24 -24 0 -32 10 -18 23 8 8 8 8 27 1z m-3746 -51 c26 -35
31 -48 21 -54 -9 -5 -22 7 -41 41 -15 27 -28 52 -28 55 0 15 19 -1 48 -42z
m3692 37 c0 -5 -7 -10 -16 -10 -8 0 -12 5 -9 10 3 6 10 10 16 10 5 0 9 -4 9
-10z m-5025 -17 c35 -17 40 -27 29 -57 -8 -20 -15 -20 -59 -2 -33 14 -33 16
-22 45 6 17 12 31 14 31 1 0 18 -8 38 -17z m4215 7 c0 -5 -4 -10 -10 -10 -5 0
-10 5 -10 10 0 6 5 10 10 10 6 0 10 -4 10 -10z m440 0 c0 -10 -80 -18 -85 -9
-3 3 -3 8 0 10 7 8 85 6 85 -1z m-106 -8 c3 -5 -1 -9 -9 -9 -8 0 -15 4 -15 9
0 4 4 8 9 8 6 0 12 -4 15 -8z m-3954 -12 c8 -5 11 -12 8 -16 -10 -9 -38 3 -38
16 0 12 10 13 30 0z m-121 -13 c12 -15 5 -27 -16 -27 -7 0 -13 9 -13 20 0 23
13 26 29 7z m958 -9 c-3 -8 -6 -5 -6 6 -1 11 2 17 5 13 3 -3 4 -12 1 -19z
m132 9 c6 -8 8 -17 5 -20 -9 -9 31 -23 106 -37 36 -6 69 -16 75 -21 12 -12 6
-12 -62 6 -66 17 -97 19 -88 5 3 -5 -1 -10 -10 -10 -11 0 -15 5 -12 14 7 17
-20 30 -27 13 -3 -9 -6 -9 -13 0 -6 8 -30 11 -73 9 -56 -4 -60 -3 -31 6 19 5
46 8 59 5 21 -4 23 -2 18 19 -5 20 -3 24 18 24 13 0 29 -6 35 -13z m2651 -12
c0 -19 -5 -25 -22 -25 -16 0 -19 3 -10 9 7 4 12 12 11 17 -3 16 1 24 11 24 6
0 10 -11 10 -25z m1698 -6 c-3 -8 -7 -3 -11 10 -4 17 -3 21 5 13 5 -5 8 -16 6
-23z m-943 -19 c3 -5 -1 -10 -10 -10 -9 0 -13 5 -10 10 3 6 8 10 10 10 2 0 7
-4 10 -10z m110 1 c-15 -13 -65 -23 -65 -12 0 5 12 12 28 14 15 2 31 5 37 6 6
0 6 -2 0 -8z m258 -63 l6 -58 -71 -60 c-73 -63 -92 -71 -62 -26 20 31 9 50
-12 22 -15 -21 -18 -18 -8 8 3 9 12 16 18 16 18 0 59 47 52 58 -3 5 4 18 15
28 11 10 18 23 15 30 -6 16 24 58 34 47 4 -4 10 -34 13 -65z m-5171 38 c29
-13 62 -30 72 -39 19 -14 19 -15 -10 -21 -29 -6 -52 -1 -116 27 -30 13 -32 16
-22 41 8 21 14 20 76 -8z m395 -11 c24 -21 25 -24 9 -25 -20 0 -56 27 -56 42
0 15 18 8 47 -17z m4353 15 c0 -5 -8 -10 -17 -10 -15 0 -16 2 -3 10 19 12 20
12 20 0z m-840 -4 c0 -3 -4 -8 -10 -11 -5 -3 -10 -1 -10 4 0 6 5 11 10 11 6 0
10 -2 10 -4z m768 -3 c-10 -2 -26 -2 -35 0 -10 3 -2 5 17 5 19 0 27 -2 18 -5z
m152 -8 c-7 -9 -15 -13 -17 -11 -7 7 7 26 19 26 6 0 6 -6 -2 -15z m74 0 c-4
-8 -10 -15 -15 -15 -5 0 -9 7 -9 15 0 8 7 15 15 15 9 0 12 -6 9 -15z m-5161
-30 c-3 -9 -8 -14 -10 -11 -3 3 -2 9 2 15 9 16 15 13 8 -4z m1717 5 c0 -5 -15
-10 -32 -9 -31 1 -32 1 -8 9 35 11 40 11 40 0z m3630 0 c0 -5 -5 -10 -11 -10
-5 0 -7 5 -4 10 3 6 8 10 11 10 2 0 4 -4 4 -10z m-5270 -20 c0 -34 -39 -55
-55 -30 -11 18 13 49 35 43 11 -3 20 -9 20 -13z m5060 5 c16 -19 3 -40 -16
-24 -15 13 -19 39 -5 39 5 0 14 -7 21 -15z m-640 -5 c0 -5 -4 -10 -10 -10 -5
0 -10 5 -10 10 0 6 5 10 10 10 6 0 10 -4 10 -10z m-3223 -6 c-3 -3 -12 -4 -19
-1 -8 3 -5 6 6 6 11 1 17 -2 13 -5z m3043 -13 c0 -11 -9 -23 -21 -26 -32 -10
-37 4 -9 25 31 24 30 24 30 1z m-2826 1 c9 -15 -9 -27 -64 -45 -57 -19 -130
-28 -130 -16 0 14 63 30 70 18 5 -6 9 -3 12 9 4 14 19 23 49 30 59 13 57 13
63 4z m326 -12 c17 -5 0 -7 -50 -7 -53 0 -66 2 -45 7 39 10 64 10 95 0z m3288
-2 c7 -7 12 -21 12 -31 0 -16 -3 -17 -14 -8 -15 13 -28 51 -17 51 4 0 12 -5
19 -12z m998 -5 c19 -26 17 -43 -6 -40 -23 4 -39 17 -20 17 9 0 10 3 1 13 -6
8 -8 17 -4 20 10 10 15 9 29 -10z m-1196 -12 c0 -12 -28 -22 -34 -12 -3 5 -3
11 1 15 9 9 33 7 33 -3z m667 -3 c-3 -7 -17 -44 -32 -83 -46 -114 -65 -122
-65 -27 0 53 2 59 37 89 39 33 69 43 60 21z m-997 -8 c0 -5 -5 -10 -11 -10 -5
0 -7 5 -4 10 3 6 8 10 11 10 2 0 4 -4 4 -10z m493 -125 c0 -16 -7 -46 -15 -65
l-14 -35 -37 58 c-36 56 -37 59 -22 88 9 16 24 39 33 50 17 20 17 19 36 -23
11 -24 19 -56 19 -73z m-513 99 c0 -1 -7 -15 -15 -30 -8 -16 -15 -38 -16 -49
-1 -30 -27 -95 -28 -70 -2 42 31 152 45 152 8 0 14 -1 14 -3z m-4220 -14 c0
-12 -87 -12 -115 0 -14 6 1 9 48 9 38 1 67 -3 67 -9z m1140 -15 c-13 -14 -29
-25 -35 -25 -7 0 -20 -9 -30 -20 -19 -21 -45 -27 -45 -11 0 14 27 39 50 46 11
3 20 10 20 15 0 8 21 17 49 19 10 1 7 -7 -9 -24z m1989 0 c13 -12 13 -15 0
-18 -38 -11 -117 -23 -114 -16 3 3 -10 10 -28 13 l-32 7 28 15 c15 8 33 12 39
8 7 -5 8 -3 3 6 -11 19 84 5 104 -15z m-2168 -5 c-13 -11 -29 -20 -36 -20 -7
0 -22 -3 -32 -7 -14 -5 -13 -1 6 20 17 18 34 27 55 27 l31 -1 -24 -19z m-261
-10 c0 -5 -5 -10 -11 -10 -5 0 -7 5 -4 10 3 6 8 10 11 10 2 0 4 -4 4 -10z
m2927 4 c-3 -3 -12 -4 -19 -1 -8 3 -5 6 6 6 11 1 17 -2 13 -5z m271 -16 c21
-2 13 -18 -9 -18 -11 0 -30 -5 -41 -11 -20 -11 -37 0 -38 23 0 10 32 17 55 11
11 -2 26 -5 33 -5z m1221 -85 c1 -15 -19 -36 -71 -74 -40 -29 -97 -73 -126
-96 -30 -24 -57 -43 -62 -43 -11 0 3 58 23 97 9 17 63 73 119 124 l103 92 7
-39 c4 -21 7 -49 7 -61z m-5236 67 c9 0 17 -4 17 -10 0 -11 -62 -13 -100 -3
l-25 7 25 7 c14 4 34 6 45 3 11 -2 28 -4 38 -4z m4666 -16 c-6 -7 -15 -11 -20
-8 -5 3 -3 11 4 18 16 18 31 8 16 -10z m-4174 6 c-3 -5 -10 -10 -16 -10 -5 0
-9 5 -9 10 0 6 7 10 16 10 8 0 12 -4 9 -10z m645 0 c0 -5 -8 -10 -17 -10 -15
0 -16 2 -3 10 19 12 20 12 20 0z m2105 0 c-3 -5 -13 -10 -20 -10 -8 0 -35 -7
-61 -16 -60 -20 -69 -10 -13 16 46 21 105 27 94 10z m1210 -22 c-77 -21 -125
-25 -125 -12 0 8 17 15 43 18 23 3 53 7 67 9 38 5 48 -6 15 -15z m-3947 -25
c-2 -22 -9 -29 -32 -31 -16 -2 -33 1 -39 7 -15 15 20 51 50 51 21 0 24 -4 21
-27z m612 7 c0 -5 -11 -10 -25 -10 -16 0 -25 -6 -25 -16 0 -8 -5 -12 -11 -9
-15 10 19 45 43 45 10 0 18 -4 18 -10z m150 -53 l0 -62 -57 -43 -58 -42 -3 42
c-6 76 4 100 56 135 26 17 50 32 55 32 4 1 7 -27 7 -62z m2843 28 c7 -18 -6
-27 -63 -42 -48 -12 -64 -6 -58 23 2 13 15 21 43 25 66 10 73 10 78 -6z
m-4149 -3 c3 -5 -20 -15 -52 -23 -59 -14 -61 -14 -63 -1 -5 22 102 44 115 24z
m4642 -17 c-21 -16 -32 -13 -21 4 3 6 14 11 23 11 15 -1 15 -2 -2 -15z m182
-24 l31 -39 -23 -70 c-20 -63 -75 -142 -98 -142 -8 0 -7 5 17 150 28 166 25
161 73 101z m158 2 c-4 -4 -11 -1 -16 7 -16 25 -11 35 7 17 9 -9 13 -20 9 -24z
m-4456 7 c0 -14 -31 -28 -51 -23 -34 9 -22 33 16 33 19 0 35 -4 35 -10z m545
1 c7 -12 -12 -24 -25 -16 -11 7 -4 25 10 25 5 0 11 -4 15 -9z m325 -5 c0 -2
-7 -7 -16 -10 -8 -3 -12 -2 -9 4 6 10 25 14 25 6z m3540 -46 c-15 -28 -23 -20
-14 15 4 17 10 23 16 17 6 -6 6 -18 -2 -32z m-3763 -17 c-3 -10 -5 -2 -5 17 0
19 2 27 5 18 2 -10 2 -26 0 -35z m2793 37 c0 -5 -2 -10 -4 -10 -3 0 -8 5 -11
10 -3 6 -1 10 4 10 6 0 11 -4 11 -10z m496 1 c-6 -8 -83 -31 -107 -31 -27 0 6
16 54 26 29 6 53 12 55 13 2 0 1 -3 -2 -8z m-3982 -33 c-9 -14 -54 -9 -54 5 0
8 2 16 5 19 8 8 54 -15 49 -24z m536 17 c0 -8 -7 -15 -15 -15 -16 0 -20 12 -8
23 11 12 23 8 23 -8z m-1130 -25 c-20 -13 -43 -13 -35 0 3 6 16 10 28 10 18 0
19 -2 7 -10z m3287 4 c-3 -3 -12 -4 -19 -1 -8 3 -5 6 6 6 11 1 17 -2 13 -5z
m983 -33 c0 -13 -10 -20 -31 -25 -35 -7 -49 -1 -49 19 0 8 14 15 33 18 17 2
35 5 40 5 4 1 7 -6 7 -17z m-2824 -17 c-23 -16 -40 -19 -31 -4 3 6 13 10 21
10 8 0 14 5 14 12 0 6 3 8 7 4 5 -4 -1 -14 -11 -22z m-159 -21 c-3 -10 -5 -4
-5 12 0 17 2 24 5 18 2 -7 2 -21 0 -30z m3336 -2 c-20 -23 -36 -31 -60 -31
-31 0 -32 1 -21 20 7 12 24 23 38 26 14 3 34 9 45 13 29 12 29 7 -2 -28z
m-2410 12 c26 -9 47 -21 47 -26 0 -4 -4 -5 -10 -2 -5 3 -10 4 -10 0 0 -3 12
-11 28 -17 21 -9 23 -12 9 -15 -9 -3 -31 7 -48 21 -31 26 -44 30 -89 26 -39
-3 -58 -18 -79 -59 -30 -59 -29 -136 3 -195 14 -27 26 -55 26 -62 0 -7 3 -14
8 -16 4 -1 18 -25 32 -52 29 -59 99 -136 122 -136 23 0 34 20 11 21 -13 0 -11
3 7 10 l25 10 -45 41 c-24 22 -55 47 -67 55 -13 8 -20 19 -17 24 3 5 -2 9 -11
9 -9 0 -19 9 -22 20 -3 11 -10 20 -15 20 -14 0 -60 108 -54 128 3 10 15 18 26
19 16 1 20 -5 21 -30 l1 -32 8 30 c4 17 8 47 9 67 1 26 7 40 20 48 27 14 41
13 41 -4 0 -19 57 -66 81 -66 29 0 23 -20 -8 -26 -73 -15 -98 -77 -63 -156 24
-54 45 -74 90 -83 19 -4 47 -16 62 -26 16 -12 43 -19 72 -19 54 0 58 -10 14
-39 -30 -18 -35 -19 -56 -5 -13 8 -29 13 -35 10 -7 -2 -4 -5 5 -5 10 -1 15 -7
12 -14 -2 -7 5 -22 16 -32 20 -18 22 -18 55 -1 40 22 85 15 85 -13 0 -27 -28
-47 -93 -66 -109 -31 -150 -8 -265 153 -90 125 -156 277 -146 337 14 88 74
161 134 164 8 1 36 -7 63 -16z m1919 -8 c3 -14 1 -28 -4 -31 -12 -8 -15 -4
-23 29 -5 20 -4 27 8 27 8 0 17 -11 19 -25z m-2505 -1 c-15 -8 -25 -19 -22
-24 3 -6 -1 -7 -10 -4 -13 6 -11 10 12 25 15 11 33 19 38 19 6 -1 -3 -8 -18
-16z m3446 -52 c-10 -31 -32 -63 -65 -95 -27 -27 -52 -47 -54 -44 -3 3 0 25 6
48 8 30 28 60 62 96 28 29 55 50 59 47 4 -2 1 -26 -8 -52z m-5102 32 c-18 -8
-36 -13 -39 -10 -6 7 37 25 58 25 8 -1 0 -7 -19 -15z m509 -3 c0 -6 16 -7 35
-4 41 7 45 -5 13 -42 -26 -29 -78 -44 -78 -21 0 29 13 76 21 76 5 0 9 -4 9 -9z
m938 -47 c-3 -35 -6 -39 -32 -42 -15 -2 -39 -1 -52 2 -22 6 -21 8 24 50 26 25
51 41 55 37 5 -5 7 -26 5 -47z m3095 49 c7 -12 -16 -28 -40 -28 -28 0 -31 17
-6 26 24 10 41 11 46 2z m-2943 -13 c0 -5 -5 -10 -11 -10 -5 0 -7 5 -4 10 3 6
8 10 11 10 2 0 4 -4 4 -10z m-396 -8 c2 -4 -4 -13 -15 -20 -16 -11 -19 -9 -19
8 0 19 24 28 34 12z m3331 -32 c3 -5 1 -10 -4 -10 -6 0 -11 5 -11 10 0 6 2 10
4 10 3 0 8 -4 11 -10z m156 -23 c-8 -8 -11 -7 -11 4 0 20 13 34 18 19 3 -7 -1
-17 -7 -23z m-4234 1 c-3 -8 -6 -5 -6 6 -1 11 2 17 5 13 3 -3 4 -12 1 -19z
m3851 10 c-6 -18 -28 -21 -28 -4 0 9 7 16 16 16 9 0 14 -5 12 -12z m-4343 -8
c-3 -5 -14 -10 -23 -9 -14 0 -13 2 3 9 27 11 27 11 20 0z m745 0 c0 -5 -2 -10
-4 -10 -3 0 -8 5 -11 10 -3 6 -1 10 4 10 6 0 11 -4 11 -10z m3510 -13 c0 -17
-37 -39 -45 -26 -4 5 -4 16 -1 24 7 18 46 20 46 2z m307 -9 c-3 -8 -6 -5 -6 6
-1 11 2 17 5 13 3 -3 4 -12 1 -19z m-4066 -35 c-9 -16 -10 -14 -11 12 0 21 3
26 11 18 8 -8 8 -16 0 -30z m4084 4 c-18 -25 -33 -34 -55 -35 -20 0 -30 4 -30
14 0 15 46 38 60 29 4 -3 13 2 20 10 25 30 30 14 5 -18z m-4115 -22 c0 -36 -6
-51 -27 -74 -62 -65 -209 -242 -281 -338 -50 -66 -84 -133 -68 -133 2 0 13 -3
23 -7 16 -6 16 -5 4 10 -10 13 -10 17 -1 17 28 0 178 133 274 243 32 37 63 67
67 67 22 0 5 -33 -42 -82 -42 -43 -109 -124 -173 -207 -9 -11 -6 -13 14 -7 24
7 24 6 6 -8 -11 -9 -17 -18 -14 -22 9 -9 79 39 141 96 31 28 59 51 62 50 4 -1
13 7 21 17 12 17 13 16 14 -11 0 -21 -4 -27 -15 -22 -11 4 -15 -1 -15 -17 0
-14 -16 -38 -40 -61 -23 -21 -39 -41 -36 -44 3 -3 12 1 20 7 9 7 17 8 20 2 3
-5 -9 -18 -27 -30 -17 -11 -27 -21 -20 -21 18 0 72 31 136 78 42 31 67 42 93
42 l36 0 -63 -52 c-34 -29 -56 -54 -49 -56 7 -3 16 2 21 9 5 8 9 10 9 5 0 -5
7 -3 15 4 9 7 18 11 21 8 3 -3 -12 -16 -33 -28 -39 -24 -32 -40 9 -19 34 17
161 101 176 116 7 7 32 13 55 13 39 -1 41 -2 22 -15 -42 -30 -184 -150 -181
-152 2 -2 19 4 39 12 47 20 47 12 0 -20 -21 -14 -31 -25 -23 -25 21 0 159 76
253 138 58 39 88 52 115 52 l36 0 -85 -62 c-207 -152 -194 -141 -173 -149 18
-6 18 -7 2 -14 -10 -4 -18 -11 -18 -16 0 -23 167 60 343 172 59 38 112 69 117
69 22 0 7 -17 -45 -53 -30 -21 -55 -42 -55 -48 0 -5 -6 -9 -13 -9 -7 0 -33
-15 -59 -32 -25 -18 -73 -52 -107 -76 -34 -24 -60 -49 -59 -57 2 -8 -6 -21
-17 -29 -18 -14 -14 -14 35 0 79 23 200 89 405 220 l70 44 6 -27 7 -28 1 26
c0 15 10 37 20 50 16 19 22 22 32 12 7 -7 28 -13 46 -13 18 0 33 -4 33 -10 0
-5 -4 -10 -8 -10 -5 0 -34 -15 -65 -34 -31 -19 -57 -31 -57 -28 0 4 -4 2 -8
-4 -4 -6 -35 -26 -69 -44 -34 -19 -59 -38 -56 -44 3 -5 2 -6 -4 -3 -5 3 -35
-10 -67 -29 -31 -18 -60 -34 -63 -34 -7 0 -111 -68 -128 -83 -6 -6 4 -7 25 -4
l35 6 -40 -19 c-61 -30 -9 -26 77 5 96 35 516 247 563 286 35 27 138 69 157
63 18 -5 14 -9 -28 -28 -62 -27 -226 -115 -419 -225 -232 -132 -293 -173 -232
-158 21 6 21 6 3 -8 -11 -8 -25 -15 -32 -15 -7 0 -15 -4 -18 -8 -8 -14 86 4
140 26 163 66 532 257 701 363 40 25 53 18 53 -27 0 -23 4 -33 11 -28 7 4 10
0 7 -11 -1 -10 -10 -22 -18 -26 -22 -13 -117 -54 -180 -79 -30 -12 -77 -32
-105 -45 -165 -75 -320 -149 -390 -184 -70 -35 -76 -40 -50 -41 17 -1 24 -4
15 -7 -8 -3 -18 -11 -22 -17 -5 -8 -8 -7 -8 2 0 6 -4 12 -10 12 -5 0 -10 -6
-10 -14 0 -36 -169 -34 -171 3 -1 14 -2 14 -6 -1 -5 -20 -35 -32 -61 -24 -14
5 -17 14 -14 47 3 29 1 40 -7 35 -6 -4 -11 -18 -11 -31 0 -20 -26 -42 -37 -32
-2 3 3 24 11 48 8 24 14 44 12 46 -1 1 -15 -23 -32 -55 -23 -45 -34 -57 -54
-58 -32 -2 -43 5 -32 19 10 13 32 97 32 121 0 29 -18 17 -25 -16 -4 -18 -12
-36 -18 -40 -6 -3 -11 -16 -12 -29 -2 -31 -25 -37 -26 -7 -2 38 1 49 27 90 14
22 23 42 20 45 -10 11 -44 -42 -72 -109 -16 -41 -33 -68 -45 -71 -27 -7 -28
-1 -8 63 25 80 35 160 20 160 -6 0 -11 -8 -11 -17 0 -10 -7 -27 -15 -37 -13
-17 -14 -16 -11 18 2 20 6 39 10 43 9 10 7 23 -4 23 -13 0 -62 -100 -89 -182
-19 -58 -44 -89 -59 -74 -3 3 10 63 29 134 22 87 30 134 24 147 -8 19 -9 19
-12 -2 -6 -34 -23 -28 -23 7 0 17 -4 30 -8 30 -16 0 -69 -123 -102 -233 -23
-79 -33 -88 -80 -82 -14 2 -28 4 -32 4 -4 1 6 29 21 64 60 132 101 235 101
256 0 15 -6 21 -21 21 -11 0 -17 5 -14 10 8 14 -7 12 -26 -3 -22 -17 -80 -119
-123 -218 -61 -138 -54 -129 -103 -129 l-43 0 13 33 c8 17 48 91 89 162 41 72
80 145 86 163 10 29 9 32 -9 32 -11 0 -17 5 -14 10 14 23 -33 8 -56 -17 -77
-87 -219 -325 -219 -368 0 -11 -13 -15 -51 -15 l-50 0 32 58 c18 31 64 102
102 157 38 55 83 121 99 148 26 39 36 47 62 48 28 1 27 2 -11 11 -24 5 -43 13
-43 17 0 5 -20 6 -44 4 -38 -5 -45 -3 -51 16 -5 16 -14 21 -42 21 l-37 0 82
83 c78 78 221 260 326 415 27 39 51 72 53 72 2 0 3 -20 3 -45z m70 35 c0 -5
-4 -10 -10 -10 -5 0 -10 5 -10 10 0 6 5 10 10 10 6 0 10 -4 10 -10z m650 -8
c0 -10 -35 -31 -53 -32 -16 0 -16 2 -2 24 11 16 22 22 35 19 11 -3 20 -8 20
-11z m280 11 c0 -5 -23 -23 -50 -41 l-50 -32 0 38 0 39 50 2 c28 1 50 -2 50
-6z m-750 -7 c0 -3 -4 -8 -10 -11 -5 -3 -10 -1 -10 4 0 6 5 11 10 11 6 0 10
-2 10 -4z m610 1 c0 -2 -12 -14 -27 -28 -24 -22 -23 -11 2 18 9 11 25 17 25
10z m30 -16 c0 -6 -4 -13 -10 -16 -5 -3 -10 1 -10 9 0 9 5 16 10 16 6 0 10 -4
10 -9z m3314 -38 c-4 -16 -14 -43 -24 -62 l-17 -34 -6 32 c-5 24 -2 36 13 51
11 11 20 25 20 30 0 6 5 10 10 10 6 0 8 -11 4 -27z m-3594 -2 c0 -6 -4 -13
-10 -16 -5 -3 -10 1 -10 9 0 9 5 16 10 16 6 0 10 -4 10 -9z m45 -11 c-20 -22
-31 -20 -22 5 4 8 14 15 23 15 16 0 16 -2 -1 -20z m235 -1 c0 -5 -4 -9 -10 -9
-5 0 -10 7 -10 16 0 8 5 12 10 9 6 -3 10 -10 10 -16z m460 7 c0 -3 -4 -8 -10
-11 -5 -3 -10 -1 -10 4 0 6 5 11 10 11 6 0 10 -2 10 -4z m2570 -16 c-8 -5 -17
-7 -19 -4 -3 3 1 9 9 14 8 5 17 7 19 4 3 -3 -1 -9 -9 -14z m-2695 -10 c3 -5 1
-10 -4 -10 -6 0 -11 5 -11 10 0 6 2 10 4 10 3 0 8 -4 11 -10z m-1075 -11 c0
-16 -26 -39 -45 -39 -14 0 -14 3 2 25 18 25 43 33 43 14z m180 -9 c0 -11 -7
-20 -15 -20 -15 0 -21 21 -8 33 12 13 23 7 23 -13z m3520 11 c0 -7 -51 -31
-66 -31 -10 0 -2 29 9 33 21 9 57 7 57 -2z m-1785 -11 c3 -5 0 -10 -7 -10 -8
-1 -6 -6 6 -15 10 -8 23 -12 27 -9 5 3 6 -2 3 -10 -3 -9 -1 -16 5 -16 18 0 12
-20 -6 -21 -17 -1 -17 -2 0 -6 9 -2 17 -8 17 -12 0 -16 -13 -19 -36 -11 -22 9
-24 8 -18 -16 6 -24 5 -24 -22 -12 -16 6 -35 16 -41 21 -22 16 -15 63 15 95
28 32 46 39 57 22z m2394 -12 c-15 -29 -49 -73 -49 -64 0 16 41 86 51 86 6 0
5 -8 -2 -22z m151 15 c0 -5 -6 -20 -14 -34 -7 -14 -16 -39 -20 -55 -7 -29 -26
-93 -111 -369 -114 -369 -115 -371 -115 -329 0 58 95 487 131 591 10 31 19 65
19 76 0 10 20 39 45 64 25 24 45 48 45 53 0 6 5 10 10 10 6 0 10 -3 10 -7z
m-3600 -45 c-19 -73 -25 -81 -83 -119 -49 -32 -68 -39 -106 -38 -25 1 -36 4
-23 6 12 2 22 12 23 21 0 14 2 13 9 -3 7 -17 9 -17 9 -2 1 20 17 23 24 5 3 -7
6 3 8 22 l2 35 7 -35 7 -35 2 41 c1 38 7 47 57 93 31 28 60 48 64 46 5 -3 4
-20 0 -37z m280 37 c0 -2 -15 -12 -32 -21 l-33 -16 20 20 c18 19 45 29 45 17z
m2770 -23 c0 -13 -12 -22 -22 -16 -10 6 -1 24 13 24 5 0 9 -4 9 -8z m-3950
-28 c0 -8 -53 -25 -58 -19 -9 9 31 33 45 28 7 -3 13 -7 13 -9z m3894 1 c-4 -8
-11 -15 -16 -15 -6 0 -5 6 2 15 7 8 14 15 16 15 2 0 1 -7 -2 -15z m-3714 -15
c0 -11 -7 -20 -15 -20 -8 0 -15 2 -15 4 0 2 -3 11 -6 20 -4 12 0 16 15 16 14
0 21 -6 21 -20z m430 10 c0 -5 -4 -10 -9 -10 -6 0 -13 5 -16 10 -3 6 1 10 9
10 9 0 16 -4 16 -10z m3393 -47 c-20 -77 -32 -98 -33 -55 0 17 -3 32 -8 32 -9
0 -40 -105 -51 -175 -7 -39 -9 -43 -10 -17 -1 34 -9 39 -30 20 -11 -11 -13
-10 -7 5 9 26 -16 16 -30 -11 -14 -29 -29 -42 -21 -19 4 10 2 17 -5 17 -6 0
-1 11 12 25 13 14 30 25 37 25 8 0 21 6 28 14 12 11 10 15 -11 25 -13 6 -41 9
-62 6 -28 -4 -32 -3 -16 4 12 5 24 16 27 25 4 9 17 16 30 16 14 0 30 7 37 15
7 8 18 15 26 15 15 0 36 34 27 44 -3 3 -1 6 5 6 7 0 12 -4 12 -10 0 -5 5 -10
11 -10 6 0 8 7 5 17 -4 10 -4 14 0 10 4 -4 13 2 21 13 21 30 22 25 6 -37z
m-153 37 c-13 -9 -13 -10 0 -10 12 -1 11 -3 -3 -11 -10 -6 -30 -9 -45 -7 l-27
3 30 17 c33 19 73 26 45 8z m-3280 -20 c0 -5 -2 -10 -4 -10 -3 0 -8 5 -11 10
-3 6 -1 10 4 10 6 0 11 -4 11 -10z m556 -1 c8 -14 -11 -33 -25 -25 -11 7 -4
36 9 36 5 0 12 -5 16 -11z m222 -1 c7 -7 12 -19 12 -28 0 -13 -9 -17 -37 -15
-20 0 -39 7 -41 14 -3 9 2 11 17 6 17 -5 21 -2 21 14 0 24 10 27 28 9z m430
-22 c-8 -6 -13 -17 -10 -25 3 -8 -1 -12 -9 -9 -19 6 -23 36 -8 54 9 11 15 12
26 2 13 -10 13 -13 1 -22z m1980 -11 c-1 -1 -13 -6 -25 -9 -19 -6 -23 -3 -23
13 0 23 43 34 48 13 2 -8 2 -15 0 -17z m172 20 c0 -8 -4 -15 -10 -15 -5 0 -10
7 -10 15 0 8 5 15 10 15 6 0 10 -7 10 -15z m-4010 -15 c0 -11 -4 -20 -10 -20
-5 0 -10 9 -10 20 0 11 5 20 10 20 6 0 10 -9 10 -20z m440 11 c0 -6 -4 -13
-10 -16 -5 -3 -10 1 -10 9 0 9 5 16 10 16 6 0 10 -4 10 -9z m-220 -5 c0 -3
-18 -22 -40 -44 -32 -31 -46 -38 -67 -34 l-26 5 24 18 c13 10 29 19 36 19 6 0
15 9 18 20 4 13 15 20 31 20 13 0 24 -2 24 -4z m427 -21 c-36 -32 -47 -31 -47
0 0 22 4 25 38 25 l37 -1 -28 -24z m422 -4 c-13 -11 -28 -20 -33 -21 -5 0 4
11 20 25 15 13 30 22 32 20 3 -3 -6 -13 -19 -24z m61 25 c0 -3 -4 -8 -10 -11
-5 -3 -10 -1 -10 4 0 6 5 11 10 11 6 0 10 -2 10 -4z m190 -11 c0 -2 -10 -10
-22 -16 -21 -11 -22 -11 -9 4 13 16 31 23 31 12z m2400 -29 c0 -15 -48 -31
-59 -21 -7 8 28 35 46 35 7 0 13 -6 13 -14z m-2367 -3 c11 -11 61 -10 79 1 11
7 21 6 32 -3 23 -19 20 -38 -6 -47 -20 -7 -138 -6 -145 0 -5 4 22 56 28 56 3
0 9 -3 12 -7z m607 -18 c0 -8 -7 -11 -20 -8 -23 6 -26 19 -7 26 16 6 27 -1 27
-18z m-695 5 c-3 -5 -12 -10 -18 -10 -7 0 -6 4 3 10 19 12 23 12 15 0z m-698
-22 c-3 -8 -6 -5 -6 6 -1 11 2 17 5 13 3 -3 4 -12 1 -19z m-237 8 c0 -2 -7 -6
-15 -10 -8 -3 -15 -1 -15 4 0 6 7 10 15 10 8 0 15 -2 15 -4z m900 -6 c0 -5 -5
-10 -11 -10 -5 0 -7 5 -4 10 3 6 8 10 11 10 2 0 4 -4 4 -10z m917 -12 c-3 -8
-6 -5 -6 6 -1 11 2 17 5 13 3 -3 4 -12 1 -19z m2227 -30 c-4 -13 -10 -38 -15
-56 -12 -53 -22 -52 -14 2 8 59 14 76 27 76 5 0 6 -10 2 -22z m-4274 -3 c-14
-17 -75 -21 -65 -4 4 6 13 8 21 5 7 -3 16 -1 19 4 4 6 13 10 22 10 13 0 13 -3
3 -15z m210 5 c-19 -13 -30 -13 -30 0 0 6 10 10 23 10 18 0 19 -2 7 -10z m458
-15 c-32 -30 -48 -32 -48 -6 0 19 15 28 55 30 18 1 17 -2 -7 -24z m642 7 c-8
-2 -29 -11 -47 -19 -37 -17 -68 -14 -68 7 0 10 14 17 45 20 48 6 96 0 70 -8z
m2430 8 c0 -5 -4 -10 -10 -10 -5 0 -10 5 -10 10 0 6 5 10 10 10 6 0 10 -4 10
-10z m-2860 -14 c0 -7 -7 -19 -15 -26 -16 -13 -20 -3 -9 24 8 20 24 21 24 2z
m200 -9 c0 -7 -6 -22 -14 -33 -13 -17 -15 -18 -21 -2 -4 9 -1 24 7 32 16 19
28 20 28 3z m335 3 c3 -5 1 -10 -4 -10 -6 0 -11 5 -11 10 0 6 2 10 4 10 3 0 8
-4 11 -10z m1982 4 c-3 -3 -12 -4 -19 -1 -8 3 -5 6 6 6 11 1 17 -2 13 -5z
m-2577 -8 c0 -2 -7 -7 -16 -10 -8 -3 -12 -2 -9 4 6 10 25 14 25 6z m-681 -29
c-1 -23 -87 -86 -109 -80 -11 3 -20 8 -20 12 0 3 26 25 56 48 54 41 75 46 73
20z m3261 12 c0 -6 -6 -9 -12 -6 -7 2 -25 0 -40 -4 -16 -4 -28 -4 -28 1 0 8
25 16 63 19 9 0 17 -4 17 -10z m250 3 c0 -13 -50 -33 -62 -26 -6 4 -1 12 13
20 28 15 49 18 49 6z m-3710 -27 c-25 -27 -40 -25 -40 6 0 15 7 19 32 19 l31
0 -23 -25z m1530 10 c0 -8 -4 -15 -10 -15 -5 0 -10 7 -10 15 0 8 5 15 10 15 6
0 10 -7 10 -15z m-453 -1 c-3 -3 -12 -4 -19 -1 -8 3 -5 6 6 6 11 1 17 -2 13
-5z m383 -4 c0 -5 -9 -10 -21 -10 -11 0 -17 5 -14 10 3 6 13 10 21 10 8 0 14
-4 14 -10z m-420 -4 c0 -2 -8 -10 -17 -17 -16 -13 -17 -12 -4 4 13 16 21 21
21 13z m363 -3 c-7 -2 -19 -2 -25 0 -7 3 -2 5 12 5 14 0 19 -2 13 -5z m-816
-35 c-3 -7 -5 -2 -5 12 0 14 2 19 5 13 2 -7 2 -19 0 -25z m3410 -25 c-3 -10
-5 -2 -5 17 0 19 2 27 5 18 2 -10 2 -26 0 -35z m-3189 25 c-6 -17 -36 -34 -44
-25 -4 4 1 14 12 22 23 18 37 19 32 3z m279 -3 c0 -8 -4 -15 -9 -15 -4 0 -8 7
-8 15 0 8 4 15 8 15 5 0 9 -7 9 -15z m373 10 c0 -15 -103 -48 -160 -51 -50 -3
-56 -1 -29 5 20 4 49 17 65 29 20 15 44 21 77 22 26 0 47 -2 47 -5z m2431 -52
c-9 -15 -10 -13 -11 13 0 17 3 34 8 38 11 12 14 -32 3 -51z m-3581 37 c0 -5 0
-13 0 -17 0 -6 -23 -8 -46 -4 -4 1 -1 8 6 16 14 17 40 20 40 5z m930 -4 c0 -2
-7 -7 -16 -10 -8 -3 -12 -2 -9 4 6 10 25 14 25 6z m2277 -22 c13 -2 25 -16 32
-35 14 -41 14 -99 0 -99 -6 0 -9 9 -6 19 4 17 2 18 -20 10 -33 -12 -112 -5
-148 15 -20 10 -24 16 -12 16 9 0 17 4 17 9 0 4 -28 11 -62 15 -34 3 -66 10
-70 14 -32 32 161 58 269 36z m-1977 -3 c0 -9 -78 -51 -95 -51 -14 0 65 50 93
59 1 1 2 -3 2 -8z m2200 4 c0 -7 -88 -45 -103 -44 -7 0 -3 5 8 10 11 5 31 16
45 24 25 15 50 20 50 10z m114 -29 c-3 -9 -10 -16 -15 -16 -5 0 -4 9 3 20 14
22 21 20 12 -4z m166 -200 c-7 -7 -10 6 -10 42 0 29 -4 52 -10 52 -5 0 -10 25
-10 55 0 44 3 53 15 49 10 -4 16 0 17 12 1 11 4 -30 5 -90 2 -66 0 -113 -7
-120z m-4420 179 c-7 -8 -18 -15 -24 -15 -6 0 -2 7 8 15 25 19 32 19 16 0z
m2038 -20 c12 -19 22 -36 22 -39 0 -2 -13 -6 -30 -9 -16 -4 -49 -16 -72 -27
-23 -11 -43 -20 -45 -20 -8 0 -2 40 7 45 6 3 10 15 10 25 0 10 7 25 15 33 8 8
11 17 8 21 -4 3 9 6 28 6 28 0 38 -7 57 -35z m1652 -6 c11 -6 6 -8 -16 -9 -49
0 -98 12 -83 21 14 8 76 1 99 -12z m460 -18 c0 -16 -28 -32 -67 -37 -21 -2
-31 -1 -23 2 8 4 26 15 39 25 25 20 51 25 51 10z m-4283 -7 c-3 -3 -12 -4 -19
-1 -8 3 -5 6 6 6 11 1 17 -2 13 -5z m4326 -14 c-3 -12 -8 -19 -11 -16 -5 6 5
36 12 36 2 0 2 -9 -1 -20z m-2766 -26 c-3 -3 -12 -4 -19 -1 -8 3 -5 6 6 6 11
1 17 -2 13 -5z m2750 -36 c-3 -7 -5 -2 -5 12 0 14 2 19 5 13 2 -7 2 -19 0 -25z
m-27 8 c0 -3 -5 -17 -10 -32 -6 -14 -7 -32 -2 -38 11 -15 3 -236 -9 -236 -8 0
-15 109 -12 192 1 31 -1 36 -18 33 -36 -7 -35 26 1 57 31 26 50 35 50 24z
m-2023 -56 l22 -51 -23 -8 c-12 -5 -125 -44 -251 -86 -127 -42 -234 -81 -239
-86 -6 -5 -16 -9 -23 -9 -8 0 -77 -25 -153 -55 -133 -52 -144 -54 -230 -54
-53 0 -88 4 -85 10 4 5 14 9 24 9 33 0 397 129 454 161 10 5 60 28 110 50 183
80 286 133 280 142 -3 6 -1 7 5 3 6 -4 24 0 39 8 42 23 47 20 70 -34z m2344
-43 c1 -26 7 -47 12 -47 12 0 0 -62 -21 -106 -18 -39 -32 -29 -32 25 0 33 31
183 37 178 1 -2 3 -24 4 -50z m-261 28 c0 -8 -4 -15 -10 -15 -5 0 -7 7 -4 15
4 8 8 15 10 15 2 0 4 -7 4 -15z m-2800 -5 c0 -5 -8 -10 -17 -10 -15 0 -16 2
-3 10 19 12 20 12 20 0z m3097 -12 c-3 -8 -6 -5 -6 6 -1 11 2 17 5 13 3 -3 4
-12 1 -19z m-3693 -33 c-4 -8 -14 -15 -23 -15 -14 1 -13 3 3 15 25 19 27 19
20 0z m546 11 c0 -2 -13 -9 -30 -15 -35 -12 -41 -5 -7 9 25 10 37 12 37 6z
m2740 -15 c0 -6 -4 -13 -10 -16 -5 -3 -10 1 -10 9 0 9 5 16 10 16 6 0 10 -4
10 -9z m-1993 -27 c-3 -3 -12 -4 -19 -1 -8 3 -5 6 6 6 11 1 17 -2 13 -5z m-57
-18 c0 -2 -9 -6 -20 -9 -11 -3 -18 -1 -14 4 5 9 34 13 34 5z m2045 -18 c-4
-13 -12 -27 -18 -33 -7 -7 -8 -4 -3 8 3 10 6 25 6 33 0 8 5 14 11 14 6 0 8 -9
4 -22z m-2014 -15 c-13 -3 -37 -13 -55 -24 -17 -10 -37 -19 -45 -19 -8 0 6 11
30 24 24 14 55 24 69 24 25 -1 25 -1 1 -5z m2126 -105 c-2 -13 -4 -3 -4 22 0
25 2 35 4 23 2 -13 2 -33 0 -45z m-3647 22 c0 -5 -5 -10 -11 -10 -5 0 -7 5 -4
10 3 6 8 10 11 10 2 0 4 -4 4 -10z m770 -4 c0 -2 -7 -7 -16 -10 -8 -3 -12 -2
-9 4 6 10 25 14 25 6z m3184 -61 c3 -8 1 -15 -4 -15 -6 0 -10 7 -10 15 0 8 2
15 4 15 2 0 6 -7 10 -15z m39 -13 c-4 -17 -12 -22 -37 -21 -24 1 -26 3 -8 6
12 3 28 13 35 23 14 24 18 21 10 -8z m89 3 c5 -22 2 -25 -24 -25 -28 0 -28 0
-12 25 9 14 20 25 24 25 4 0 10 -11 12 -25z m-4125 -17 c-3 -8 -6 -5 -6 6 -1
11 2 17 5 13 3 -3 4 -12 1 -19z m1123 -12 c0 -2 -7 -7 -16 -10 -8 -3 -12 -2
-9 4 6 10 25 14 25 6z m607 -198 c-3 -8 -6 -5 -6 6 -1 11 2 17 5 13 3 -3 4
-12 1 -19z m2381 -23 c0 -30 -2 -30 -39 -8 -38 23 -37 33 5 33 29 0 34 -3 34
-25z m58 0 c-34 -32 -44 -32 -42 0 1 21 6 25 35 25 l34 0 -27 -25z m-3716 12
c0 -5 -49 -128 -66 -165 -9 -18 -21 -49 -28 -69 -7 -20 -19 -39 -26 -41 -16
-6 -16 -7 41 156 34 94 47 122 61 122 10 0 18 -1 18 -3z m170 -6 c0 -4 -5 -22
-11 -40 -9 -25 -24 -39 -72 -62 l-61 -29 26 27 c14 16 32 47 39 71 11 39 15
42 46 42 18 0 33 -4 33 -9z m110 5 c0 -2 -7 -6 -15 -10 -8 -3 -15 -1 -15 4 0
6 7 10 15 10 8 0 15 -2 15 -4z m1007 -28 c-3 -8 -6 -5 -6 6 -1 11 2 17 5 13 3
-3 4 -12 1 -19z m-1793 -42 c-3 -9 -12 -16 -20 -16 -12 0 -23 -30 -38 -100 -3
-14 -3 -1 -1 29 3 42 11 61 31 83 29 30 38 31 28 4z m86 -26 c-23 -32 -46 -41
-36 -14 3 9 6 20 6 25 0 6 4 8 9 4 6 -3 15 5 22 17 8 14 14 18 16 11 3 -7 -5
-26 -17 -43z m1735 10 c4 -18 13 -30 23 -31 13 0 13 -2 3 -6 -15 -6 -50 33
-51 55 0 24 19 11 25 -18z m-1435 -15 c-6 -15 -13 -25 -17 -21 -3 3 0 17 7 31
17 32 24 26 10 -10z m-33 3 c-3 -8 -6 -5 -6 6 -1 11 2 17 5 13 3 -3 4 -12 1
-19z m167 -22 c-3 -14 -10 -26 -14 -26 -5 0 -3 13 3 30 13 35 21 33 11 -4z
m-34 -17 c-13 -42 -37 -75 -47 -64 -5 4 -2 10 5 12 6 3 12 8 12 13 0 14 31 82
35 78 3 -2 0 -20 -5 -39z m2665 0 c0 -8 -8 -13 -20 -11 -19 3 -19 3 -2 -10 16
-12 15 -17 -20 -75 -20 -35 -41 -63 -46 -63 -5 0 1 15 15 33 23 32 48 81 48
95 -1 4 -10 -11 -22 -33 -14 -27 -23 -35 -26 -25 -7 20 -22 30 -50 30 -13 0
-20 4 -17 10 3 6 17 10 31 10 15 0 24 6 24 15 0 8 8 15 19 15 10 0 24 7 31 15
15 18 35 15 35 -6z m-3225 -20 c0 -11 -4 -18 -10 -14 -5 3 -7 12 -3 20 7 21
13 19 13 -6z m3100 1 c0 -5 -5 -10 -11 -10 -5 0 -7 5 -4 10 3 6 8 10 11 10 2
0 4 -4 4 -10z m-2934 -12 c4 -7 3 -8 -4 -4 -7 4 -12 2 -12 -3 0 -6 -4 -11 -10
-11 -5 0 -10 7 -10 15 0 18 26 20 36 3z m2901 -10 c-3 -8 -6 -5 -6 6 -1 11 2
17 5 13 3 -3 4 -12 1 -19z m-2621 -45 c-18 -33 -21 -26 -6 13 6 15 13 24 16
21 3 -3 -1 -18 -10 -34z m-413 -863 c3 -11 1 -20 -4 -20 -5 0 -9 9 -9 20 0 11
2 20 4 20 2 0 6 -9 9 -20z m-136 -22 c-3 -8 -6 -5 -6 6 -1 11 2 17 5 13 3 -3
4 -12 1 -19z m152 -137 c1 -47 -10 -50 -15 -4 -9 80 -6 111 6 73 4 -14 8 -45
9 -69z m-82 17 c-3 -8 -6 -5 -6 6 -1 11 2 17 5 13 3 -3 4 -12 1 -19z m0 -40
c-3 -8 -6 -5 -6 6 -1 11 2 17 5 13 3 -3 4 -12 1 -19z m-17 -82 c0 -25 -4 -48
-10 -51 -6 -4 -10 13 -10 44 0 28 5 51 10 51 6 0 10 -20 10 -44z m151 12 c0
-18 2 -41 4 -50 3 -16 -5 -18 -71 -16 l-74 1 0 49 0 48 70 0 70 0 1 -32z
m-151 -120 c0 -24 -5 -50 -10 -58 -7 -11 -10 2 -10 43 0 31 4 57 10 57 6 0 10
-19 10 -42z m153 22 c-5 -18 -13 -20 -74 -20 -61 0 -69 2 -69 19 0 16 9 18 74
20 70 2 74 1 69 -19z m-3 -60 l0 -30 -70 0 -70 0 0 30 0 30 70 0 70 0 0 -30z
m-25 -235 c0 -5 -17 -11 -37 -13 -38 -3 -53 12 -20 21 26 8 57 3 57 -8z m4906
3 c-30 -7 -47 -6 -54 1 -8 8 4 11 44 10 l54 -1 -44 -10z m220 6 c32 -5 35 -9
31 -31 -3 -14 -15 -28 -27 -33 -13 -5 -27 -19 -31 -32 -13 -42 -64 -108 -84
-108 -23 0 -55 44 -47 64 4 10 1 13 -8 10 -7 -3 -27 6 -43 20 -16 15 -37 33
-48 40 -33 25 -8 29 49 9 55 -20 173 -21 161 -2 -3 5 -12 9 -21 9 -9 0 -25 7
-34 16 -10 9 -28 17 -40 18 -12 0 -24 7 -27 14 -4 13 101 17 169 6z m-5706
-14 c-3 -5 -10 -10 -16 -10 -5 0 -9 5 -9 10 0 6 7 10 16 10 8 0 12 -4 9 -10z
m6023 -20 c-25 -16 -49 -34 -53 -39 -3 -6 -15 -11 -26 -11 -10 0 -19 -4 -19
-10 0 -5 -7 -10 -15 -10 -8 0 -15 5 -15 10 0 6 5 10 12 10 7 0 22 10 33 23 27
30 74 55 105 56 21 1 18 -4 -22 -29z m-193 -30 c-10 -11 -20 -18 -23 -15 -7 6
18 35 31 35 5 0 2 -9 -8 -20z m261 -35 c-11 -8 -25 -15 -30 -15 -6 0 -2 7 8
15 11 8 25 15 30 15 6 0 2 -7 -8 -15z m-363 -25 c-10 -17 -30 -43 -45 -57 -23
-21 -28 -23 -28 -10 0 9 6 17 13 17 6 1 24 19 39 40 33 47 47 53 21 10z
m-5708 0 c3 -5 -1 -10 -10 -10 -9 0 -13 5 -10 10 3 6 8 10 10 10 2 0 7 -4 10
-10z m6065 0 c-8 -5 -19 -10 -25 -10 -5 0 -3 5 5 10 8 5 20 10 25 10 6 0 3 -5
-5 -10z m-222 -25 c-3 -3 -9 2 -12 12 -6 14 -5 15 5 6 7 -7 10 -15 7 -18z
m-5841 -1 c-3 -3 -12 -4 -19 -1 -8 3 -5 6 6 6 11 1 17 -2 13 -5z m5789 -39
c-11 -8 -22 -12 -25 -9 -6 6 19 24 34 24 6 -1 1 -7 -9 -15z m-312 -10 c9 -12
37 -20 89 -24 5 -1 5 -6 2 -11 -12 -20 -9 -104 3 -108 8 -2 12 9 12 33 0 47
26 99 46 91 9 -3 19 -6 24 -6 4 0 -1 -17 -11 -37 -10 -21 -19 -46 -19 -58 1
-14 7 -9 22 20 27 53 64 83 95 77 l24 -5 -20 -21 c-36 -38 -94 -186 -73 -186
5 0 17 18 27 41 21 44 129 149 154 149 11 -1 7 -7 -11 -21 -16 -11 -28 -27
-28 -35 0 -16 16 -19 25 -4 3 6 11 10 17 10 6 0 2 -10 -9 -22 -59 -64 -113
-187 -113 -256 0 -43 16 -33 24 15 3 21 20 54 37 73 l31 35 -22 -37 c-24 -42
-41 -156 -22 -144 7 4 12 14 12 22 0 21 72 105 107 126 28 16 29 16 30 -4 2
-15 -3 -19 -18 -15 -10 3 -19 1 -19 -4 0 -5 4 -9 10 -9 5 0 1 -16 -10 -35 -11
-20 -20 -42 -20 -49 0 -8 -5 -16 -11 -18 -15 -5 -25 -153 -11 -162 6 -3 13 10
17 34 4 26 20 53 47 82 22 24 37 35 34 25 -3 -10 -6 -23 -6 -28 0 -5 -6 -9
-12 -9 -9 0 -13 -20 -12 -73 3 -147 3 -147 19 -147 20 0 16 -32 -5 -42 -12 -5
-12 -7 3 -7 11 -1 17 -9 17 -23 0 -13 3 -33 6 -45 4 -16 0 -23 -17 -28 -21 -7
-21 -9 -6 -20 9 -7 17 -24 17 -38 0 -14 5 -29 10 -32 8 -5 7 -12 -1 -22 -8 -9
-9 -17 -3 -21 17 -11 11 -58 -10 -81 -11 -12 -14 -21 -8 -21 17 0 12 -78 -4
-84 -8 -3 -11 -12 -8 -21 3 -8 1 -15 -5 -15 -6 0 -17 -16 -26 -36 -8 -20 -19
-33 -25 -29 -6 4 -17 -9 -25 -28 -8 -19 -24 -37 -35 -40 -14 -3 -20 -12 -18
-24 2 -15 -5 -19 -39 -21 -42 -3 -56 -15 -30 -25 6 -3 -6 -6 -27 -6 -37 -1
-39 0 -20 14 10 8 17 15 14 15 -3 0 -19 4 -37 9 -25 7 -31 6 -27 -4 3 -7 -3
-15 -13 -18 -12 -3 -8 -5 10 -6 24 -1 26 -3 17 -21 -10 -18 -21 -20 -109 -20
-85 0 -100 2 -106 18 -4 9 -9 96 -13 192 -3 104 -10 187 -18 205 l-12 29 -16
-38 c-9 -21 -16 -49 -16 -62 0 -17 -6 -24 -20 -24 -17 0 -20 -7 -21 -47 -1
-27 -1 -54 0 -61 1 -8 -12 -12 -39 -12 -36 0 -40 -2 -40 -25 0 -20 -5 -25 -24
-25 -14 0 -31 -8 -38 -18 -15 -21 -85 -23 -98 -3 -5 9 -18 11 -40 6 -18 -4
-35 -3 -39 3 -3 5 -31 21 -61 36 -64 30 -120 77 -120 99 0 9 -5 19 -10 22 -6
4 -8 14 -6 23 4 13 -5 22 -37 35 -44 18 -97 60 -97 75 0 5 -9 17 -20 27 -11
10 -22 37 -26 64 -4 25 -14 60 -22 76 -9 17 -15 42 -13 58 1 15 -8 60 -20 100
-16 49 -23 97 -23 150 0 42 -3 77 -7 77 -5 0 -6 48 -3 106 5 83 3 108 -7 115
-11 7 -10 9 4 9 10 0 16 3 14 8 -4 6 136 9 741 16 96 1 112 3 112 17 0 9 8 19
18 21 9 3 30 24 47 48 l29 42 -21 39 c-18 34 -20 49 -5 49 3 0 10 -7 16 -15z
m-986 -174 c2 -13 1 -44 -3 -68 -5 -37 -10 -43 -31 -43 -27 0 -29 11 -18 94 6
40 10 47 28 44 13 -2 22 -12 24 -27z m-6 -181 c1 -27 2 -58 2 -67 1 -14 -6
-18 -29 -16 l-30 2 27 -11 c24 -10 28 -18 33 -74 8 -73 4 -83 -30 -76 -35 6
-51 37 -28 51 14 8 15 13 5 19 -9 6 -12 36 -10 108 1 54 3 102 5 107 3 4 15 7
29 7 22 0 24 -4 26 -50z m1511 -29 c-9 -12 -23 -21 -31 -21 -7 0 0 11 15 24
33 29 42 27 16 -3z m-13 -210 c0 -12 -20 -25 -27 -18 -7 7 6 27 18 27 5 0 9
-4 9 -9z m-1485 -102 c4 -44 5 -82 2 -85 -2 -3 -24 0 -48 5 -62 15 -89 13 -89
-3 0 -23 -52 -13 -61 11 -6 16 2 30 38 64 25 24 49 54 54 67 7 18 16 22 53 22
l44 0 7 -81z m1466 24 c-8 -15 -10 -15 -11 -2 0 17 10 32 18 25 2 -3 -1 -13
-7 -23z m-1467 -134 c5 -5 35 -203 31 -207 -6 -6 -34 11 -30 18 9 14 -7 72
-17 62 -11 -11 -48 -4 -48 9 0 5 -13 9 -29 9 -17 0 -33 6 -37 12 -6 9 -10 5
-15 -12 -5 -22 -8 -17 -23 32 -20 65 -15 81 20 72 16 -4 24 -2 24 6 0 9 17 11
60 8 33 -2 62 -6 64 -9z m1486 -74 c0 -14 -4 -25 -10 -25 -11 0 -14 33 -3 43
11 11 13 8 13 -18z m-1500 -117 c0 -4 -10 -8 -22 -8 -13 0 -43 -14 -68 -30
l-45 -30 -3 41 c-5 66 -3 68 72 50 36 -8 66 -19 66 -23z m1270 -434 c0 -2 -15
-4 -32 -4 -23 0 -29 3 -19 9 12 8 51 4 51 -5z m67 -10 c-3 -3 -12 -4 -19 -1
-8 3 -5 6 6 6 11 1 17 -2 13 -5z"/>
<path d="M245 5940 c3 -5 8 -10 11 -10 2 0 4 5 4 10 0 6 -5 10 -11 10 -5 0 -7
-4 -4 -10z"/>
<path d="M3615 4859 c-11 -17 1 -21 15 -4 8 9 8 15 2 15 -6 0 -14 -5 -17 -11z"/>
<path d="M3707 4864 c-10 -11 -8 -44 2 -44 6 0 13 4 16 10 8 12 -9 43 -18 34z"/>
<path d="M5601 5493 c30 -49 69 -91 69 -75 0 6 -3 12 -7 12 -5 0 -23 23 -42
50 -40 59 -53 67 -20 13z"/>
<path d="M4328 4953 c7 -3 16 -2 19 1 4 3 -2 6 -13 5 -11 0 -14 -3 -6 -6z"/>
<path d="M4505 4370 c3 -5 8 -10 11 -10 2 0 4 5 4 10 0 6 -5 10 -11 10 -5 0
-7 -4 -4 -10z"/>
<path d="M3766 3257 c3 -10 9 -15 12 -12 3 3 0 11 -7 18 -10 9 -11 8 -5 -6z"/>
<path d="M5735 1610 c3 -5 13 -10 21 -10 8 0 14 5 14 10 0 6 -9 10 -21 10 -11
0 -17 -4 -14 -10z"/>
<path d="M5540 1320 c0 -5 5 -10 11 -10 5 0 7 5 4 10 -3 6 -8 10 -11 10 -2 0
-4 -4 -4 -10z"/>
<path d="M5521 634 c0 -11 3 -14 6 -6 3 7 2 16 -1 19 -3 4 -6 -2 -5 -13z"/>
<path d="M5618 83 c12 -2 32 -2 45 0 12 2 2 4 -23 4 -25 0 -35 -2 -22 -4z"/>
<path d="M4552 810 c0 -14 2 -19 5 -12 2 6 2 18 0 25 -3 6 -5 1 -5 -13z"/>
<path d="M4492 645 c0 -16 2 -22 5 -12 2 9 2 23 0 30 -3 6 -5 -1 -5 -18z"/>
<path d="M0 5792 c0 -5 14 -19 32 -32 l31 -23 -19 26 c-19 27 -44 43 -44 29z"/>
<path d="M0 5750 c0 -5 5 -10 11 -10 5 0 7 5 4 10 -3 6 -8 10 -11 10 -2 0 -4
-4 -4 -10z"/>
<path d="M25 5716 c17 -7 34 -11 40 -8 5 4 -1 9 -15 13 -42 12 -57 9 -25 -5z"/>
<path d="M0 5579 c0 -5 11 -9 25 -9 32 0 32 6 0 12 -14 3 -25 1 -25 -3z"/>
<path d="M0 5549 c0 -5 9 -9 20 -9 11 0 20 2 20 4 0 2 -9 6 -20 9 -11 3 -20 1
-20 -4z"/>
<path d="M6197 5004 c-8 -8 1 -24 14 -24 5 0 9 7 9 15 0 15 -12 20 -23 9z"/>
<path d="M6212 4915 c0 -16 2 -22 5 -12 2 9 2 23 0 30 -3 6 -5 -1 -5 -18z"/>
<path d="M6197 4830 c-4 -16 -4 -43 -1 -60 4 -17 1 -36 -5 -44 -9 -10 -8 -15
2 -19 9 -3 12 -16 9 -35 -2 -16 1 -33 7 -36 8 -5 11 27 11 108 0 111 -11 150
-23 86z"/>
<path d="M6170 4624 c-11 -13 -12 -16 -1 -10 8 5 16 3 22 -5 6 -11 11 -11 21
-1 9 9 9 12 -4 12 -9 0 -18 5 -20 11 -2 7 -10 4 -18 -7z"/>
<path d="M6160 4589 c0 -5 5 -7 10 -4 6 3 10 8 10 11 0 2 -4 4 -10 4 -5 0 -10
-5 -10 -11z"/>
<path d="M6194 4425 c-10 -8 -14 -14 -9 -15 15 0 40 18 34 24 -3 3 -14 -1 -25
-9z"/>
<path d="M6183 4373 c9 -2 23 -2 30 0 6 3 -1 5 -18 5 -16 0 -22 -2 -12 -5z"/>
<path d="M6164 4334 c-41 -28 -89 -76 -105 -106 -15 -28 6 -21 32 11 28 33 63
53 74 43 5 -4 5 -2 2 5 -4 6 5 15 23 22 20 7 30 17 30 30 0 27 -9 26 -56 -5z"/>
<path d="M6145 4244 c-33 -19 -67 -37 -76 -40 -9 -3 -22 -17 -29 -30 -8 -13
-16 -24 -20 -24 -19 0 -101 -86 -133 -140 -20 -33 -35 -60 -33 -60 2 0 23 25
46 56 25 33 56 62 77 71 40 16 38 17 46 -18 5 -21 -2 -34 -43 -75 -59 -60 -77
-101 -22 -53 43 38 113 72 198 95 l64 17 0 38 c0 25 -5 39 -12 39 -7 -1 -48
-18 -91 -39 l-78 -37 3 30 c3 30 6 32 91 55 84 24 87 26 87 54 0 27 -2 28 -32
22 -46 -9 -101 -27 -115 -38 -9 -6 -13 -5 -13 2 0 12 118 71 143 71 10 0 17 8
17 20 0 26 -4 25 -75 -16z"/>
<path d="M6185 3990 c3 -5 13 -10 21 -10 8 0 14 5 14 10 0 6 -9 10 -21 10 -11
0 -17 -4 -14 -10z"/>
<path d="M6158 3973 c7 -3 16 -2 19 1 4 3 -2 6 -13 5 -11 0 -14 -3 -6 -6z"/>
<path d="M6130 3937 c-36 -18 -94 -53 -130 -79 -64 -46 -141 -118 -126 -118 4
0 42 20 84 44 42 24 109 53 147 66 120 38 115 35 115 80 0 48 -5 49 -90 7z"/>
<path d="M6155 3850 c-3 -5 -1 -10 4 -10 6 0 11 5 11 10 0 6 -2 10 -4 10 -3 0
-8 -4 -11 -10z"/>
<path d="M6188 3733 c7 -3 16 -2 19 1 4 3 -2 6 -13 5 -11 0 -14 -3 -6 -6z"/>
<path d="M6146 3364 c-72 -72 -161 -182 -154 -190 3 -2 27 15 55 39 27 23 69
56 92 72 86 61 83 57 79 104 l-3 44 -69 -69z"/>
<path d="M6205 3310 c-3 -5 -1 -10 4 -10 6 0 11 5 11 10 0 6 -2 10 -4 10 -3 0
-8 -4 -11 -10z"/>
<path d="M6198 3264 c-57 -64 -145 -211 -133 -222 3 -4 23 13 43 38 78 94 81
96 91 80 8 -11 4 -22 -13 -40 -30 -32 -106 -156 -106 -171 0 -7 32 19 70 57
59 58 70 74 70 102 0 18 -5 43 -11 54 -8 15 -8 22 1 28 6 4 10 25 8 50 -3 40
-4 41 -20 24z"/>
<path d="M882 3240 c0 -14 2 -19 5 -12 2 6 2 18 0 25 -3 6 -5 1 -5 -13z"/>
<path d="M908 3255 c-12 -22 -18 -65 -8 -65 5 0 12 11 16 25 6 26 1 55 -8 40z"/>
<path d="M735 3190 c-3 -5 -1 -10 4 -10 6 0 11 5 11 10 0 6 -2 10 -4 10 -3 0
-8 -4 -11 -10z"/>
<path d="M451 3174 c0 -11 3 -14 6 -6 3 7 2 16 -1 19 -3 4 -6 -2 -5 -13z"/>
<path d="M720 3149 c0 -5 5 -7 10 -4 6 3 10 8 10 11 0 2 -4 4 -10 4 -5 0 -10
-5 -10 -11z"/>
<path d="M850 3116 c0 -8 4 -17 9 -20 5 -4 7 3 4 14 -6 23 -13 26 -13 6z"/>
<path d="M512 3090 c0 -14 2 -19 5 -12 2 6 2 18 0 25 -3 6 -5 1 -5 -13z"/>
<path d="M936 3079 c-8 -42 0 -50 9 -9 4 17 5 34 2 36 -2 3 -7 -10 -11 -27z"/>
<path d="M572 3080 c0 -14 2 -19 5 -12 2 6 2 18 0 25 -3 6 -5 1 -5 -13z"/>
<path d="M842 3075 c0 -11 3 -29 8 -40 11 -25 11 1 0 35 -6 20 -8 21 -8 5z"/>
<path d="M680 3071 c0 -6 5 -13 10 -16 6 -3 10 1 10 9 0 9 -4 16 -10 16 -5 0
-10 -4 -10 -9z"/>
<path d="M6176 3018 c-49 -59 -81 -108 -69 -108 5 0 32 22 62 48 45 40 52 52
49 77 l-3 30 -39 -47z"/>
<path d="M594 2980 c0 -70 1 -72 10 -32 5 26 5 55 0 75 -8 27 -10 20 -10 -43z"/>
<path d="M610 3030 c0 -5 5 -10 10 -10 6 0 10 5 10 10 0 6 -4 10 -10 10 -5 0
-10 -4 -10 -10z"/>
<path d="M791 3030 c-1 -8 -3 -33 -6 -55 -4 -34 -3 -36 4 -10 l8 30 11 -25 c6
-14 11 -18 11 -9 1 8 -3 19 -8 25 -5 5 -11 20 -14 34 -2 14 -5 18 -6 10z"/>
<path d="M711 2989 c-1 -9 -8 -30 -16 -45 -8 -16 -15 -40 -14 -54 0 -16 7 -5
20 34 11 32 18 63 15 70 -2 6 -5 4 -5 -5z"/>
<path d="M836 2946 c2 -27 -2 -56 -8 -63 -6 -7 -8 -16 -5 -20 4 -3 14 10 22
30 17 42 19 50 6 42 -6 -3 -12 9 -14 27 -2 18 -3 11 -1 -16z"/>
<path d="M6203 2946 c0 -19 -46 -106 -55 -106 -4 0 -5 -7 -1 -15 5 -13 8 -13
20 5 8 11 19 20 25 20 6 0 4 -8 -5 -18 -10 -10 -17 -23 -17 -28 0 -5 -36 -29
-80 -53 -44 -24 -80 -48 -80 -52 0 -13 5 -11 45 12 47 28 53 19 18 -22 -51
-62 -70 -94 -77 -134 -4 -21 -17 -52 -27 -67 -15 -21 -17 -26 -5 -22 8 3 29
28 47 55 35 55 108 124 140 132 16 4 18 3 8 -9 -6 -7 -27 -23 -45 -35 -19 -11
-31 -26 -28 -31 4 -6 2 -8 -3 -5 -6 4 -16 0 -23 -8 -20 -24 5 -18 38 10 17 14
36 25 44 25 7 0 21 9 31 20 9 11 24 20 32 20 9 0 15 9 15 25 0 14 -5 25 -10
25 -6 0 -5 8 2 20 7 10 9 22 6 26 -7 7 -62 -35 -145 -110 -29 -27 -55 -47 -58
-44 -7 7 147 158 162 158 7 0 13 7 13 15 0 8 7 15 15 15 12 0 15 17 15 95 0
52 -4 95 -8 95 -5 0 -9 -7 -9 -14z"/>
<path d="M572 2930 c0 -14 2 -19 5 -12 2 6 2 18 0 25 -3 6 -5 1 -5 -13z"/>
<path d="M6166 2925 c-3 -8 -1 -15 4 -15 6 0 10 7 10 15 0 8 -2 15 -4 15 -2 0
-6 -7 -10 -15z"/>
<path d="M671 2844 c0 -11 3 -14 6 -6 3 7 2 16 -1 19 -3 4 -6 -2 -5 -13z"/>
<path d="M1 2707 c-1 -54 5 -84 30 -148 17 -44 33 -78 36 -75 3 2 -4 35 -15
73 -12 37 -25 93 -31 123 -6 30 -13 64 -15 75 -2 11 -4 -11 -5 -48z"/>
<path d="M6192 2624 c4 -3 -38 -40 -92 -81 -106 -78 -140 -120 -43 -53 31 22
81 52 110 65 55 27 70 56 36 69 -10 4 -14 4 -11 0z"/>
<path d="M443 2585 c0 -22 2 -30 4 -17 2 12 2 30 0 40 -3 9 -5 -1 -4 -23z"/>
<path d="M5880 2588 c-28 -47 -25 -58 5 -18 24 32 31 50 20 50 -3 0 -14 -15
-25 -32z"/>
<path d="M603 2540 c0 -25 2 -35 4 -22 2 12 2 32 0 45 -2 12 -4 2 -4 -23z"/>
<path d="M6200 2550 c0 -5 -4 -10 -10 -10 -13 0 -131 -81 -195 -134 -27 -22
-54 -44 -60 -48 -28 -20 -155 -130 -155 -134 0 -6 32 12 85 47 55 37 194 103
284 134 l66 23 3 66 c2 41 -1 66 -8 66 -5 0 -10 -4 -10 -10z"/>
<path d="M548 2433 c6 -2 18 -2 25 0 6 3 1 5 -13 5 -14 0 -19 -2 -12 -5z"/>
<path d="M5942 2420 c0 -14 2 -19 5 -12 2 6 2 18 0 25 -3 6 -5 1 -5 -13z"/>
<path d="M6183 2395 c-43 -19 -42 -25 2 -11 19 6 35 14 35 18 0 10 2 10 -37
-7z"/>
<path d="M6134 2338 c-87 -53 -144 -93 -192 -135 -20 -18 -49 -38 -64 -45 -16
-7 -28 -18 -28 -25 0 -6 -19 -27 -41 -47 -23 -19 -49 -45 -57 -58 -10 -13 5
-5 34 20 28 23 53 42 57 42 4 0 35 23 69 50 34 28 118 78 185 112 120 61 123
63 123 95 0 18 -4 33 -8 33 -4 0 -39 -19 -78 -42z"/>
<path d="M6176 2267 c-21 -12 -69 -50 -105 -83 -36 -34 -82 -76 -101 -93 l-35
-32 40 24 c78 46 196 107 209 107 23 0 37 27 34 64 l-3 35 -39 -22z"/>
<path d="M6195 2060 c-16 -7 -17 -9 -3 -9 9 -1 20 4 23 9 7 11 7 11 -20 0z"/>
<path d="M5910 2040 c-35 -37 -41 -53 -10 -23 19 18 32 34 29 36 -2 2 -11 -4
-19 -13z"/>
<path d="M362 1622 c-11 -15 -22 -43 -23 -61 -4 -30 -1 -35 21 -38 42 -5 55
15 51 80 -1 16 -3 16 -26 1 -14 -9 -25 -12 -25 -6 0 6 9 16 20 22 11 6 20 15
20 20 0 19 -19 10 -38 -18z"/>
<path d="M151 1611 c-8 -5 -9 -11 -3 -15 5 -3 12 1 16 9 6 17 6 18 -13 6z"/>
<path d="M642 1565 c0 -16 2 -22 5 -12 2 9 2 23 0 30 -3 6 -5 -1 -5 -18z"/>
<path d="M207 1562 c-18 -20 -22 -32 -9 -32 4 0 12 11 19 25 13 30 12 31 -10
7z"/>
<path d="M320 1572 c0 -6 -7 -18 -16 -26 -8 -9 -11 -16 -5 -16 13 0 35 39 27
48 -3 3 -6 0 -6 -6z"/>
<path d="M425 1520 c-3 -5 -1 -10 4 -10 6 0 11 5 11 10 0 6 -2 10 -4 10 -3 0
-8 -4 -11 -10z"/>
<path d="M0 1385 c0 -88 4 -135 11 -135 5 0 7 5 4 11 -5 7 5 8 29 4 34 -7 50
5 26 20 -5 3 -10 13 -10 22 0 9 -7 21 -17 28 -11 8 -16 28 -17 66 -1 49 1 54
22 57 12 2 22 -1 22 -7 0 -6 -6 -11 -14 -11 -21 0 -27 -15 -13 -33 11 -15 14
-14 35 3 20 16 21 22 10 39 -10 17 -9 23 11 41 23 19 23 20 3 20 -11 0 -23 -6
-25 -12 -3 -8 -6 -6 -6 5 -1 21 -21 23 -21 2 0 -8 -4 -15 -10 -15 -5 0 -7 7
-4 15 4 10 0 15 -15 15 -20 0 -21 -4 -21 -135z"/>
<path d="M200 1450 c0 -5 4 -10 9 -10 6 0 13 5 16 10 3 6 -1 10 -9 10 -9 0
-16 -4 -16 -10z"/>
<path d="M110 1391 c0 -5 6 -14 14 -20 16 -13 32 2 21 19 -8 12 -35 13 -35 1z"/>
<path d="M80 1350 c0 -5 5 -10 11 -10 5 0 7 5 4 10 -3 6 -8 10 -11 10 -2 0 -4
-4 -4 -10z"/>
<path d="M1634 1186 c-1 -116 1 -143 6 -96 10 89 12 248 3 253 -5 3 -8 -68 -9
-157z"/>
<path d="M45 1240 c-3 -5 -3 -10 2 -10 4 0 1 -5 -7 -10 -13 -8 -13 -11 -1 -19
8 -5 11 -16 8 -25 -3 -8 -2 -18 3 -21 10 -6 12 -1 14 28 1 6 6 16 11 20 6 6 6
10 -3 14 -6 2 -10 9 -7 13 3 5 1 11 -4 14 -5 4 -12 2 -16 -4z"/>
<path d="M0 1230 c0 -5 4 -10 9 -10 6 0 13 5 16 10 3 6 -1 10 -9 10 -9 0 -16
-4 -16 -10z"/>
<path d="M218 1193 c7 -3 16 -2 19 1 4 3 -2 6 -13 5 -11 0 -14 -3 -6 -6z"/>
<path d="M27 1112 c-32 -4 -37 -23 -5 -19 20 2 22 -2 20 -32 -3 -24 0 -32 10
-29 12 4 20 77 8 82 -3 1 -17 0 -33 -2z"/>
<path d="M618 1103 c7 -3 16 -2 19 1 4 3 -2 6 -13 5 -11 0 -14 -3 -6 -6z"/>
<path d="M112 1088 c-15 -15 -15 -25 1 -31 7 -3 13 5 13 19 2 28 2 28 -14 12z"/>
<path d="M0 1056 c0 -31 6 -34 13 -6 3 11 1 23 -4 26 -5 3 -9 -6 -9 -20z"/>
<path d="M460 1049 c0 -5 5 -7 10 -4 6 3 10 8 10 11 0 2 -4 4 -10 4 -5 0 -10
-5 -10 -11z"/>
<path d="M12 997 c-5 -6 -10 -47 -10 -89 0 -60 4 -78 14 -78 8 0 14 9 14 20 0
11 7 20 15 20 11 0 15 11 15 38 0 21 5 43 12 50 9 9 6 12 -16 12 -21 0 -27 4
-23 15 8 19 -8 28 -21 12z"/>
<path d="M662 890 c0 -19 2 -27 5 -17 2 9 2 25 0 35 -3 9 -5 1 -5 -18z"/>
<path d="M1612 840 c0 -19 2 -27 5 -17 2 9 2 25 0 35 -3 9 -5 1 -5 -18z"/>
<path d="M156 844 c-7 -19 1 -34 18 -34 9 0 12 9 8 25 -5 28 -17 33 -26 9z"/>
<path d="M1602 760 c0 -19 2 -27 5 -17 2 9 2 25 0 35 -3 9 -5 1 -5 -18z"/>
<path d="M1290 500 c0 -5 9 -10 20 -10 11 0 20 5 20 10 0 6 -9 10 -20 10 -11
0 -20 -4 -20 -10z"/>
<path d="M180 364 c0 -8 5 -12 10 -9 6 3 10 10 10 16 0 5 -4 9 -10 9 -5 0 -10
-7 -10 -16z"/>
</g>
</svg>
